<?xml version="1.0" encoding="UTF-8" standalone="no"?>
<svg
   width="531"
   height="419"
   viewBox="0 0 320.82201 447.7598"
   fill="none"
   version="1.1"
   id="svg70"
   sodipodi:docname="image-3.svg"
   inkscape:version="1.3.2 (091e20e, 2023-11-25)"
   xmlns:inkscape="http://www.inkscape.org/namespaces/inkscape"
   xmlns:sodipodi="http://sodipodi.sourceforge.net/DTD/sodipodi-0.dtd"
   xmlns="http://www.w3.org/2000/svg"
   xmlns:svg="http://www.w3.org/2000/svg">
  <defs
     id="defs70" />
  <sodipodi:namedview
     id="namedview70"
     pagecolor="#505050"
     bordercolor="#eeeeee"
     borderopacity="1"
     inkscape:showpageshadow="0"
     inkscape:pageopacity="0"
     inkscape:pagecheckerboard="0"
     inkscape:deskcolor="#505050"
     inkscape:zoom="1.7757009"
     inkscape:cx="207.80527"
     inkscape:cy="221.60264"
     inkscape:window-width="1392"
     inkscape:window-height="1212"
     inkscape:window-x="2240"
     inkscape:window-y="25"
     inkscape:window-maximized="0"
     inkscape:current-layer="svg70" />
  <path
     d="M 117.58383,0 H -50.439536 c -1.44244,0 -2.611768,1.169326 -2.611768,2.611766 V 130.15315 c 0,1.442 1.169328,2.612 2.611768,2.612 H 117.58383 c 1.443,0 2.612,-1.17 2.612,-2.612 V 2.611766 C 120.19583,1.169326 119.02683,0 117.58383,0 Z"
     fill="#f2f6fb"
     id="path1" />
  <path
     d="m -14.651076,68.457146 c 8.4938991,0 15.37959911,-6.844 15.37959911,-15.2865 0,-8.4426 -6.88570001,-15.2866 -15.37959911,-15.2866 -8.494,0 -15.3797,6.844 -15.3797,15.2866 0,8.4425 6.8857,15.2865 15.3797,15.2865 z"
     fill="#d8deed"
     id="path2" />
  <path
     d="m -14.659376,52.953146 c -2.2046,0 -3.9918,-1.7524 -3.9918,-3.9141 0,-2.1617 1.7872,-3.914 3.9918,-3.914 2.2046,0 3.991799,1.7523 3.991799,3.914 0,2.1617 -1.787199,3.9141 -3.991799,3.9141 z m 0,1.957 c 3.995899,0 7.2351991,3.1762 7.2351991,7.0942 H -21.894576 c 0,-3.918 3.2393,-7.0942 7.2352,-7.0942 z"
     fill="#f2f6fb"
     id="path3" />
  <path
     d="m -27.621876,72.479946 h 25.9416991 c 1.77740001,0 3.2182,1.4409 3.2182,3.2183 0,1.7773 -1.44079999,3.2182 -3.2182,3.2182 H -27.621876 c -1.7774,0 -3.2182,-1.4409 -3.2182,-3.2182 0,-1.7774 1.4408,-3.2183 3.2182,-3.2183 z m 4.0472,10.4593 h 17.8471991 c 1.7774,0 3.2182,1.4408 3.2182,3.2182 0,1.7774 -1.4408,3.2182 -3.2182,3.2182 H -23.574676 c -1.7773,0 -3.2182,-1.4408 -3.2182,-3.2182 0,-1.7774 1.4409,-3.2182 3.2182,-3.2182 z"
     fill="#e1e5f0"
     id="path4" />
  <path
     d="m -25.208276,100.03615 h 21.1143991 c 3.11039996,0 5.6319,2.522 5.6319,5.632 0,3.111 -2.52150004,5.632 -5.6319,5.632 H -25.208276 c -3.1104,0 -5.6318,-2.521 -5.6318,-5.632 0,-3.11 2.5214,-5.632 5.6318,-5.632 z m 48.181199,0 h 21.114301 c 3.1106,0 5.6316,2.522 5.6316,5.632 0,3.111 -2.521,5.632 -5.6316,5.632 H 22.972923 c -3.1104,0 -5.6319,-2.521 -5.6319,-5.632 0,-3.11 2.5215,-5.632 5.6319,-5.632 z m 48.522901,0 h 21.114 c 3.111,0 5.632003,2.522 5.632003,5.632 0,3.111 -2.521003,5.632 -5.632003,5.632 h -21.114 c -3.11,0 -5.632,-2.521 -5.632,-5.632 0,-3.11 2.522,-5.632 5.632,-5.632 z"
     fill="#474bff"
     id="path5" />
  <path
     d="m 33.530024,68.457146 c 8.4939,0 15.3798,-6.844 15.3798,-15.2865 0,-8.4426 -6.8859,-15.2866 -15.3798,-15.2866 -8.493901,0 -15.379601,6.844 -15.379601,15.2866 0,8.4425 6.8857,15.2865 15.379601,15.2865 z"
     fill="#d8deed"
     id="path6" />
  <path
     d="m 33.521724,52.953146 c -2.2046,0 -3.9918,-1.7524 -3.9918,-3.9141 0,-2.1617 1.7872,-3.914 3.9918,-3.914 2.2047,0 3.9919,1.7523 3.9919,3.914 0,2.1617 -1.7872,3.9141 -3.9919,3.9141 z m 0,1.957 c 3.9959,0 7.2352,3.1762 7.2352,7.0942 H 26.286623 c 0,-3.918 3.239301,-7.0942 7.235101,-7.0942 z"
     fill="#f2f6fb"
     id="path7" />
  <path
     d="m 20.559223,72.479946 h 25.941601 c 1.778,0 3.218,1.4409 3.218,3.2183 0,1.7773 -1.44,3.2182 -3.218,3.2182 H 20.559223 c -1.7773,0 -3.2182,-1.4409 -3.2182,-3.2182 0,-1.7774 1.4409,-3.2183 3.2182,-3.2183 z m 0,10.4593 h 25.941601 c 1.778,0 3.218,1.4408 3.218,3.2182 0,1.7774 -1.44,3.2182 -3.218,3.2182 H 20.559223 c -1.7773,0 -3.2182,-1.4408 -3.2182,-3.2182 0,-1.7774 1.4409,-3.2182 3.2182,-3.2182 z"
     fill="#e1e5f0"
     id="path8" />
  <path
     d="m 82.052824,68.457146 c 8.494,0 15.38,-6.844 15.38,-15.2865 0,-8.4426 -6.886,-15.2866 -15.38,-15.2866 -8.494,0 -15.38,6.844 -15.38,15.2866 0,8.4425 6.886,15.2865 15.38,15.2865 z"
     fill="#d8deed"
     id="path9" />
  <path
     d="m 82.044824,52.953146 c -2.205,0 -3.992,-1.7524 -3.992,-3.9141 0,-2.1617 1.787,-3.914 3.992,-3.914 2.204,0 3.992,1.7523 3.992,3.914 0,2.1617 -1.788,3.9141 -3.992,3.9141 z m 0,1.957 c 3.996,0 7.235,3.1762 7.235,7.0942 h -14.47 c 0,-3.918 3.239,-7.0942 7.235,-7.0942 z"
     fill="#f2f6fb"
     id="path10" />
  <path
     d="m 73.128824,72.479946 h 17.848 c 1.777,0 3.218,1.4409 3.218,3.2183 0,1.7773 -1.441,3.2182 -3.218,3.2182 h -17.848 c -1.777,0 -3.218,-1.4409 -3.218,-3.2182 0,-1.7774 1.441,-3.2183 3.218,-3.2183 z m -4.047,10.4593 h 25.942 c 1.777,0 3.218003,1.4408 3.218003,3.2182 0,1.7774 -1.441003,3.2182 -3.218003,3.2182 h -25.942 c -1.777,0 -3.218,-1.4408 -3.218,-3.2182 0,-1.7774 1.441,-3.2182 3.218,-3.2182 z"
     fill="#e1e5f0"
     id="path11" />
  <path
     d="M -53.051304,7.5085462 C -53.051304,3.361686 -49.687606,0 -45.544526,0 H 112.68883 c 4.146,0 7.507,3.360776 7.507,7.5085462 V 15.017046 H -53.051304 Z"
     fill="#d8deed"
     id="path12" />
  <path
     d="m 220.31283,84.882346 h -106.647 c -4.808,0 -8.705,3.8977 -8.705,8.7059 V 210.68215 c 0,4.808 3.897,8.706 8.705,8.706 h 106.647 c 4.809,0 8.706,-3.898 8.706,-8.706 V 93.588246 c 0,-4.8082 -3.897,-8.7059 -8.706,-8.7059 z"
     fill="#e1e5f0"
     id="path16" />
  <path
     d="m 123.31983,173.61415 h 87.409 c 1.245,0 2.254,1.009 2.254,2.254 0,1.245 -1.009,2.254 -2.254,2.254 h -87.409 c -1.245,0 -2.254,-1.009 -2.254,-2.254 0,-1.245 1.009,-2.254 2.254,-2.254 z m 0,14.649 h 87.409 c 1.245,0 2.254,1.009 2.254,2.253 0,1.245 -1.009,2.254 -2.254,2.254 h -87.409 c -1.245,0 -2.254,-1.009 -2.254,-2.254 0,-1.244 1.009,-2.253 2.254,-2.253 z m 11.842,-7.324 h 63.725 c 1.245,0 2.254,1.009 2.254,2.253 0,1.245 -1.009,2.254 -2.254,2.254 h -63.725 c -1.245,0 -2.254,-1.009 -2.254,-2.254 0,-1.244 1.009,-2.253 2.254,-2.253 z m 5.639,14.648 h 52.447 c 1.245,0 2.254,1.009 2.254,2.253 0,1.245 -1.009,2.254 -2.254,2.254 h -52.447 c -1.245,0 -2.254,-1.009 -2.254,-2.254 0,-1.244 1.009,-2.253 2.254,-2.253 z"
     fill="#f2f6fb"
     id="path17" />
  <path
     d="m 166.74283,131.84715 c 8.408,0 15.225,-6.811 15.225,-15.212 0,-8.401 -6.817,-15.212 -15.225,-15.212 -8.409,0 -15.226,6.811 -15.226,15.212 0,8.401 6.817,15.212 15.226,15.212 z"
     fill="#474bff"
     id="path18" />
  <path
     d="m 166.73683,116.48315 c -1.536,0 -2.781,-1.227 -2.781,-2.741 0,-1.514 1.245,-2.741 2.781,-2.741 1.536,0 2.781,1.227 2.781,2.741 0,1.514 -1.245,2.741 -2.781,2.741 z m 0,1.37 c 2.784,0 5.04,2.224 5.04,4.968 h -10.081 c 0,-2.744 2.257,-4.968 5.041,-4.968 z"
     fill="#f2f6fb"
     id="path19" />
  <path
     d="m 183.20683,144.80515 h -32.928 c -1.245,0 -2.254,1.009 -2.254,2.254 0,1.244 1.009,2.253 2.254,2.253 h 32.928 c 1.244,0 2.253,-1.009 2.253,-2.253 0,-1.245 -1.009,-2.254 -2.253,-2.254 z"
     fill="#f2f6fb"
     id="path20" />
  <path
     d="m 189.73583,137.48115 h -45.987 c -1.244,0 -2.253,1.009 -2.253,2.253 0,1.245 1.009,2.254 2.253,2.254 h 45.987 c 1.245,0 2.254,-1.009 2.254,-2.254 0,-1.244 -1.009,-2.253 -2.254,-2.253 z"
     fill="#f2f6fb"
     id="path21" />
  <path
     d="m 103.26283,447.41515 -0.174,0.087 c -0.914,0.479 -2.09,0.217 -2.525,-0.61 l -50.973006,-93.631 c -0.479,-0.871 -0.087,-1.959 0.827,-2.438 l 0.174,-0.087 c 0.914,-0.479 2.09,-0.218 2.525,0.609 l 12.624,23.158 c 8.227,15.148 16.454,30.253 24.724,45.401 l 13.625006,24.986 c 0.479,0.871 0.087,2.002 -0.827,2.525 z"
     fill="#d8deed"
     id="path22" />
  <path
     d="m -21.710276,349.21215 h 31.907099 c 19.327001,0 38.654001,0 57.938001,0 h 29.6 c 1.044003,0 1.958003,0.871 1.958003,1.916 v 0.217 c 0,1.045 -0.87,1.915 -1.958003,1.915 h -119.5322 c -1.0447,0 -1.9588,-0.87 -1.9588,-1.915 v -0.217 c 0,-1.045 0.9141,-1.916 2.0459,-1.916 z"
     fill="#d8deed"
     id="path23" />
  <path
     d="m -38.860876,444.89015 13.6247,-24.986 c 8.2271,-15.148 16.4541991,-30.253 24.72469911,-45.401 l 12.62359989,-23.158 c 0.4353,-0.827 1.6106,-1.131 2.5247,-0.609 l 0.1741,0.087 c 0.9141,0.479 1.3059,1.611 0.8271,2.438 l -50.972999,93.631 c -0.4353,0.827 -1.6106,1.132 -2.5247,0.61 l -0.1741,-0.087 c -0.9141,-0.523 -1.3059,-1.654 -0.8271,-2.525 z"
     fill="#d8deed"
     id="path24" />
  <path
     d="m -35.247876,225.41515 4.1353,33.43 c 2.5247,20.241 5.0058,40.483 7.5306,60.68 l 3.8306,30.993 c 0.1305,1.088 -0.6095,2.177 -1.6542,2.307 l -0.2176,0.044 c -1.0447,0.13 -2.0024,-0.653 -2.1765,-1.828 l -15.54,-125.191 c -0.1306,-1.088 0.6094,-2.176 1.6541,-2.307 l 0.2177,-0.044 c 1.0882,-0.13 2.0894,0.74 2.22,1.916 z"
     fill="#d8deed"
     id="path25" />
  <path
     d="m 231.54383,447.24115 0.174,0.087 c 0.914,0.478 2.09,0.217 2.525,-0.61 l 50.973,-93.632 c 0.479,-0.87 0.087,-1.958 -0.827,-2.437 l -0.174,-0.087 c -0.914,-0.479 -2.09,-0.218 -2.525,0.609 l -12.623,23.158 c -8.228,15.148 -16.455,30.253 -24.725,45.401 l -13.625,24.986 c -0.479,0.87 -0.087,2.002 0.827,2.525 z"
     fill="#d8deed"
     id="path26" />
  <path
     d="m 358.08383,349.03815 h -31.907 c -19.327,0 -38.654,0 -57.938,0 h -29.6 c -1.044,0 -1.958,0.871 -1.958,1.915 v 0.218 c 0,1.045 0.87,1.915 1.958,1.915 h 119.532 c 1.045,0 1.959,-0.87 1.959,-1.915 v -0.218 c 0,-1.044 -0.914,-1.915 -2.046,-1.915 z"
     fill="#d8deed"
     id="path27" />
  <path
     d="m 359.99883,340.55015 v -31.298 c 0,-18.979 0,-37.914 0,-56.849 v -29.034 c 0,-1.045 -18.064,-1.916 -39.785,-1.916 h -4.527 c -21.678,0 -39.786,0.871 -39.786,1.916 v 117.268 c 0,1.045 18.064,1.915 39.786,1.915 h 4.527 c 21.677,0 39.785,-0.914 39.785,-2.002 z"
     fill="#d8deed"
     id="path28" />
  <path
     d="m 373.66783,444.71615 -13.625,-24.986 c -8.227,-15.148 -16.454,-30.253 -24.725,-45.401 l -12.623,-23.158 c -0.436,-0.827 -1.611,-1.132 -2.525,-0.609 l -0.174,0.087 c -0.914,0.478 -1.306,1.61 -0.827,2.437 l 50.973,93.632 c 0.435,0.827 1.61,1.132 2.525,0.609 l 0.174,-0.087 c 0.914,-0.522 1.306,-1.654 0.827,-2.524 z"
     fill="#d8deed"
     id="path29" />
  <path
     d="m 195.19683,447.48215 h 69.168 c 1.089,0 1.959,-0.871 1.959,-1.959 0,-1.088 -0.87,-1.959 -1.959,-1.959 h -69.168 c -1.088,0 -1.959,0.871 -1.959,1.959 0,1.088 0.871,1.959 1.959,1.959 z m 127.324,0 c 1.088,0 1.958,-0.753 1.958,-1.658 v -0.602 c 0,-0.904 -0.914,-1.658 -1.958,-1.658 h -44.618 c -1.088,0 -1.959,0.754 -1.959,1.658 v 0.602 c 0,0.905 0.914,1.658 1.959,1.658 z"
     fill="#a339ff"
     id="path30" />
  <path
     d="m 194.54583,443.70615 c 0.228,-0.091 0.477,-0.142 0.738,-0.142 h 69.168 c 0.279,0 0.543,0.057 0.782,0.16 0.058,-0.197 0.089,-0.407 0.089,-0.625 l -1.449,-26.517 -29.979,-0.441 c -0.479,0 -0.914,0.132 -1.306,0.441 -4.962,5.383 -9.707,8.383 -13.146,10.148 -2.655,1.368 -11.535,5.162 -15.54,7.015 -1.231,0.558 -3.054,1.56 -5.469,3.005 -0.573,0.343 -1.091,0.772 -1.534,1.273 -1.252,1.412 -2.037,2.678 -2.356,3.797 -0.087,0.265 -0.087,0.485 -0.13,0.75 -0.044,0.22 0,0.441 0,0.662 v 0.044 c 0.03,0.15 0.075,0.294 0.132,0.43 z m 82.511,0.059 c 0.277,-0.128 0.594,-0.201 0.933,-0.201 h 43.97 l -10.104,-26.944 -31.167,4.222 z"
     fill="#474961"
     id="path31" />
  <path
     d="m 266.76183,340.41515 c 1.255,0.624 2.427,1.207 3.516,1.749 l 0.225,3.444 c 0.261,4.521 0.566,8.492 0.914,11.992 0.261,2.752 3.613,33.93 4.832,45.372 0.261,2.595 2.133,4.796 4.701,5.504 3.874,1.101 6.355,1.73 16.411,2.084 0.653,0.039 1.306,0 1.915,-0.039 9.751,-0.787 14.626,-2.202 15.714,-2.674 1.393,-0.59 2.133,-0.865 2.873,-1.533 2.612,-2.281 2.438,-5.898 2.481,-7.235 0.22,-8.519 0.812,-31.459 0.992,-51.195 0.263,0.001 0.527,0.002 0.793,0.003 2.477,0 4.86,-1.045 7.056,-2.873 2.804,-2.351 12.663,-10.124 13.274,-26.48 0.425,-11.378 -1.556,-20.022 -5.944,-25.93 0,-0.043 -5.462,-8.662 -8.78,-8.662 h -48.872 c -3.396,0.116 -18.559,0.509 -45.491,1.179 l 0.016,0.104 c -0.15,-0.003 -0.3,-0.007 -0.451,-0.01 -11.013,-0.202 -19.936,8.578 -19.675,19.301 0,0.081 0,0.122 0,0.203 0.696,33.261 8.836,80.644 9.402,96.667 0.044,0.607 0.218,1.942 1.132,3.359 2.829,4.329 9.446,3.358 24.899,3.722 13.146,0.324 18.456,1.295 21.155,-2.266 1.48,-1.942 1.437,-4.167 1.393,-5.179 -1.076,-20.301 -2.643,-40.793 -4.481,-60.607 z"
     fill="#474bff"
     id="path32" />
  <path
     opacity="0.176986"
     d="m 266.85583,340.33115 c 1.255,0.624 2.427,1.207 3.515,1.749 l -1.995,-30.498 c -0.044,-1.769 -0.262,-12.463 8.401,-19.265 6.312,-4.915 13.973,-5.229 19.066,-5.426 7.835,-0.314 13.929,1.73 15.104,2.123 1.48,0.511 2.22,0.787 2.96,1.141 8.445,4.089 7.792,23.747 7.705,27.325 -0.087,4.522 -0.13,11.559 -0.13,19.737 0,3.327 -0.02,6.877 -0.053,10.537 0.232,0.001 0.466,0.001 0.7,0.002 2.477,0 4.86,-1.045 7.056,-2.873 2.804,-2.35 12.663,-10.124 13.274,-26.48 0.425,-11.378 -1.556,-20.021 -5.944,-25.929 0,-0.044 -5.462,-8.663 -8.78,-8.663 h -48.872 c -3.308,0.113 -18.155,0.559 -44.539,1.338 3.217,0.072 6.407,0.143 9.632,0.214 9.794,0.243 17.934,7.486 18.978,16.955 1.383,12.211 2.711,24.965 3.922,38.013 z"
     fill="#444444"
     id="path33" />
  <path
     d="m 266.56783,233.66815 c -6.399,-4.788 -22.94,-17.803 -22.94,-17.803 -5.398,4.875 7.574,13.625 7.574,13.625"
     fill="#482d1f"
     id="path34" />
  <path
     d="m 237.03483,214.01515 c 3.246,-5.423 2.316,-12.559 -2.559,-16.947 -5.538,-4.987 -14.07,-4.54 -19.057,0.998 -4.987,5.539 -4.54,14.071 0.999,19.058 4.759,4.285 11.73,4.558 16.761,1.034 l 15.461,13.921 c 0.357,0.322 0.908,0.293 1.23,-0.064 l 2.621,-2.912 c 0.322,-0.357 0.293,-0.908 -0.064,-1.229 z m -4.795,-0.803 c -3.378,3.752 -9.158,4.055 -12.91,0.677 -3.751,-3.378 -4.054,-9.158 -0.676,-12.91 3.378,-3.752 9.158,-4.055 12.91,-0.677 3.751,3.379 4.054,9.158 0.676,12.91 z"
     fill="#474961"
     id="path35" />
  <path
     d="m 276.10783,219.39115 c -0.653,1.712 -1.182,3.469 -1.587,5.272 -2.408,10.721 -6.343,17.035 -3.633,22.167 1.6,3.027 4.673,3.936 7.057,4.19 l 1.637,20.461 c 0.649,5.54 1.083,8.622 1.301,9.247 -0.041,5.121 6.393,3.818 18.371,3.818 13.937,0 32.529,1.876 33.637,-3.281 0.999,-4.648 0.759,-14.398 -0.719,-29.249 4.843,-1.267 8.406,-3.458 9.315,-5.231 2.556,-4.923 -0.377,-12.882 -3.646,-21.813 -3.94,-10.707 -6.077,-15.974 -10.896,-20.326 -3.992,-3.595 -8.354,-4.836 -12.029,-4.143 -2.966,-1.193 -6.224,-1.722 -9.59,-1.425 l -9.541,0.842 c -10.162,0.82 -18.035,9.321 -19.677,19.471 z"
     fill="#a339ff"
     id="path36" />
  <path
     opacity="0.176986"
     d="m 275.80883,220.02715 c -0.561,1.539 -1.022,3.115 -1.384,4.728 -2.408,10.721 -6.344,17.035 -3.634,22.167 1.581,2.99 4.6,3.913 6.97,4.181 l -0.104,-1.3 -0.03,-0.434 -1.891,-23.3 -0.055,-0.782 c -0.149,-1.777 -0.1,-3.54 0.128,-5.26 z"
     fill="#444444"
     id="path37" />
  <path
     d="m 309.51883,199.13315 c -0.754,-2.529 -1.837,-6.708 -3.251,-12.538 l -0.125,-2.453 c 0.087,-0.479 0.168,-0.494 0.603,-0.625 1.132,-0.304 1.741,-1.039 2.524,-1.91 1.437,-1.654 1.829,-4.091 1.132,-6.311 -0.87,-2.133 -3.134,-3.744 -5.223,-3.57 -0.784,0.087 -1.524,0.392 -2.22,0.827 l -0.044,0.044 c -0.218,0.217 -0.522,0.261 -0.827,0.304 -0.74,0 -1.349,-0.522 -1.393,-1.262 l -0.392,-11.361 c 0,-0.74 -0.566,-1.262 -1.306,-1.262 -1.61,0 -3.177,-0.088 -4.788,-0.436 -0.217,0 -0.392,-0.043 -0.566,-0.043 -1.567,-0.174 -9.968,-0.697 -14.495,5.528 -0.392,0.609 -0.783,1.219 -1.088,1.828 -0.784,1.567 -1.132,3.308 -1.001,5.137 l 0.478,7.922 c 0.088,0.784 0.175,1.567 0.349,2.394 2.089,9.794 6.529,16.585 10.273,16.802 1.915,0.044 3.83,-0.174 5.702,-0.74 0.233,-0.116 0.085,-0.025 2.701,-1.083 l 0.534,2.881 c -5.197,0.846 -8.089,2.5 -8.406,2.662 0.926,1.022 1.055,1.367 1.854,2.012 8.942,7.226 23.455,-2.288 25.286,-3.507 -2.232,-0.574 -4.337,-0.976 -6.311,-1.24 z m -38.186,59.98 -0.698,5.002 -34.563,6.524 c -1.021,-0.176 -2.007,-0.273 -2.959,-0.301 -3.273,-0.136 -6.091,0.499 -8,0.998 -4.773,-0.227 -9.5,-0.499 -14.227,-0.726 -3.864,-0.907 -12.5,-2.268 -12.773,3.176 0,0 3.728,0.998 8.773,2.314 1.18,0.308 2.434,0.634 3.729,0.971 6.691,2.31 15.446,7.073 20.487,8.689 l 51.641,-1.802 c -0.779,-0.957 -1.361,-2.043 -1.707,-3.265 -0.218,-0.625 -0.652,-3.707 -1.301,-9.247 l -0.625,-7.804 c 9.432,5.363 18.19,9.85 26.276,13.461 4.9,2.189 10.889,3.905 15.695,5.546 11.198,2.28 13.313,-1.753 14.592,-3.075 1.488,-1.539 6.446,-5.91 4.212,-31.003 -4.056,3.049 -13.751,6.018 -23.424,3.389 -2.5,-0.68 -4.735,-1.322 -6.702,-1.926 l 0.157,1.514 -51.707,-21.703 c -0.124,-0.096 -0.259,-0.182 -0.404,-0.254 l -14.931,-7.095 c -1.132,-0.523 -2.525,-0.044 -3.091,1.088 l -0.522,1.001 c -0.53,1.102 -0.105,2.356 0.883,2.975 -1.051,-0.221 -2.093,0.275 -2.537,1.274 l -0.522,1.001 c -0.445,0.923 -0.218,1.955 0.449,2.629 -0.569,0.172 -1.079,0.559 -1.392,1.13 l -0.574,0.973 c -0.626,1.144 -0.175,2.519 0.925,3.143 l 7.795,4.217 c 9.523,6.39 18.538,12.118 27.045,17.186 z m -37.567,148.986 -0.394,8.613 30.502,2.355 -0.133,-10.433 c -3.336,0.219 -8.071,-0.128 -14.954,-0.297 -6.405,-0.151 -11.292,-0.073 -15.021,-0.238 z m 47.774,0.387 -0.835,13.189 31.359,-3.725 -1.465,-9.04 c -2.58,0.518 -6.276,1.08 -11.231,1.48 -0.609,0.039 -1.262,0.079 -1.915,0.039 -9.619,-0.338 -12.307,-0.928 -15.913,-1.943 z"
     fill="#bf865f"
     id="path38" />
  <path
     d="m 307.37483,191.41015 c 0.504,2.243 0.951,4.099 1.26,5.041 0.688,0 1.379,0 2.072,0 1.04,0 4.801,-0.395 8.314,-0.61 0,0 0.261,0 0.479,-0.043 1.132,-0.174 2.22,-0.348 3.308,-0.914 0,0 0.348,-0.131 0.653,-0.392 6.138,-5.049 7.487,-12.275 4.875,-16.324 -1.871,-2.829 -5.528,-3.917 -6.05,-4.091 -0.697,-0.218 -1.393,-0.305 -2.003,-0.349 -0.237,-0.713 -0.475,-1.463 -0.713,-2.216 -0.063,-2.541 -0.628,-5.917 -2.856,-8.709 -0.914,-1.176 -2.133,-2.046 -3.439,-2.699 -3.482,-1.741 -6.137,-0.871 -13.015,-1.045 -1.393,0 -6.201,-0.612 -6.375,-0.612 -7.091,-0.449 -12.05,1.511 -14.875,5.879 2.094,-0.319 3.795,-0.319 5.1,0 8.445,2.09 10.926,16.715 14.8,16.106 0.037,-0.005 0.077,-0.011 0.118,-0.02 l -0.03,-0.024 1.871,-5.136 c 0.436,-1.045 1.176,-1.872 2.046,-2.568 0.697,-0.436 1.437,-0.74 2.22,-0.827 2.09,-0.174 4.353,1.436 5.224,3.569 0.141,0.365 0.247,0.738 0.318,1.114 0.242,1.848 -0.235,3.718 -1.407,5.067 -0.065,0.073 -0.132,0.145 -0.201,0.215 -0.003,0.005 -0.006,0.009 -0.009,0.013 -0.912,0.941 -2.098,1.588 -3.394,1.844 0.538,2.888 1.392,6.658 1.709,7.731 z m -23.7,-14.765 c 0.871,0.218 2.307,0.435 3.483,0.131 2.045,-0.436 0.13,-1.655 -1.742,-1.742 -0.87,-0.043 -1.567,0.305 -2.002,0.653 -0.305,0.305 -0.174,0.871 0.261,0.958 z m -7.352,0.001 c 0.894,0.228 2.273,0.5 3.511,0.174 2.098,-0.49 0.156,-1.718 -1.685,-1.776 -0.965,-0.046 -1.589,0.314 -2.039,0.659 -0.368,0.295 -0.232,0.851 0.213,0.943 z"
     fill="#482d1f"
     id="path39" />
  <path
     opacity="0.2"
     d="m 272.00383,259.38315 c -0.213,-0.125 -0.427,-0.25 -0.64,-0.375 l -0.731,5.15 -34.558,6.481 c -1.022,-0.176 -2.009,-0.273 -2.962,-0.301 -3.273,-0.136 -6.091,0.499 -8,0.998 -4.773,-0.227 -9.5,-0.499 -14.227,-0.726 -3.864,-0.907 -12.5,-2.268 -12.773,3.176 0,0 3.728,0.998 8.773,2.314 1.18,0.307 2.434,0.634 3.729,0.971 6.691,2.309 15.446,7.073 20.487,8.689 l 51.641,-1.802 c -0.779,-0.957 -1.361,-2.043 -1.707,-3.265 -0.218,-0.625 -0.652,-3.708 -1.301,-9.248 l -0.586,-7.314 -0.041,-0.165 0.028,-0.006 -0.026,-0.317 z"
     fill="#8c2a00"
     id="path40" />
  <path
     d="m 178.49883,257.84215 c -0.396,1.336 0.34,2.712 1.677,3.107 l 59.814,18.379 c 1.336,0.395 2.712,-0.341 3.107,-1.677 0.395,-1.337 -0.341,-2.713 -1.677,-3.108 l -59.814,-18.378 c -1.293,-0.394 -2.712,0.341 -3.107,1.677 z"
     fill="#474961"
     id="path41" />
  <path
     d="m 296.57983,196.27115 3.412,-1.525 -2.771,5.085 z"
     fill="#482d1f"
     id="path42" />
  <path
     d="m 279.49583,181.95515 c 0.392,-0.522 0.262,-1.697 0.131,-2.481 -0.044,-0.566 -0.566,-0.914 -1.045,-0.914 -0.304,0.044 -0.696,0.218 -0.783,0.827 -0.305,1.437 1.175,3.439 1.697,2.568 z m 7.183,0.044 c 0.435,-0.522 0.261,-1.741 0.13,-2.481 -0.043,-0.566 -0.566,-0.914 -1.044,-0.914 -0.305,0.043 -0.697,0.217 -0.784,0.827 -0.305,1.436 1.132,3.439 1.698,2.568 z"
     fill="#482d1f"
     id="path43" />
  <path
     d="m 280.25383,181.23215 -0.388,-2.535 c -0.037,-0.237 0.126,-0.459 0.364,-0.496 0.237,-0.036 0.46,0.127 0.496,0.364 l 0.393,2.562 0.005,0.054 0.124,4.612 c 0.017,0.051 0.059,0.085 0.115,0.089 0.527,-0.066 1.205,-0.13 2.036,-0.19 0.24,-0.017 0.448,0.164 0.466,0.403 0.017,0.24 -0.164,0.448 -0.403,0.466 -0.833,0.06 -1.507,0.123 -2.019,0.189 l -0.048,0.003 c -0.508,0.009 -0.921,-0.345 -1.009,-0.825 l -0.008,-0.067 z"
     fill="#482d1f"
     id="path44" />
  <path
     d="m 283.76183,190.09615 c 0.305,-0.044 1.088,-0.218 1.263,-0.697 0,-0.087 0.087,-0.217 0.043,-0.305 -0.13,-0.217 -1.48,-0.217 -1.48,-0.217 -1.785,0.043 -2.22,-0.044 -2.35,0.174 -0.044,0.131 -0.044,0.305 0.261,0.696 0.391,0.74 1.828,0.479 2.263,0.349 z"
     fill="#482d1f"
     id="path45" />
  <path
     d="m 310.13383,249.58315 -2.383,-22.005 c -0.039,-0.358 0.22,-0.68 0.579,-0.719 0.358,-0.039 0.68,0.22 0.719,0.579 l 2.383,22.005 c 0.039,0.358 -0.22,0.68 -0.579,0.719 -0.358,0.039 -0.68,-0.22 -0.719,-0.579 z"
     fill="#482d1f"
     id="path46" />
  <path
     d="M 114.91683,443.56515 H 54.533824 c -1.101,0 -1.983,0.87 -1.983,1.958 0,1.089 0.882,1.959 1.983,1.959 h 70.034006 49.865 c 1.089,0 1.959,-0.87 1.959,-1.959 0,-1.088 -0.87,-1.958 -1.959,-1.958 z"
     fill="#de3190"
     id="path47" />
  <path
     d="m 175.01883,443.60715 c 0.089,-0.175 0.156,-0.364 0.198,-0.565 v -0.043 c 0,-0.218 0.044,-0.436 0,-0.653 -0.043,-0.262 -0.043,-0.479 -0.131,-0.74 -0.565,-1.959 -2.089,-3.613 -3.09,-4.527 -0.131,-0.131 -0.218,-0.175 -0.348,-0.262 -1.916,-1.175 -3.874,-2.263 -5.92,-3.177 -4.005,-1.829 -12.885,-5.572 -15.54,-6.921 -3.439,-1.742 -8.184,-4.702 -13.146,-10.012 -0.392,-0.305 -0.827,-0.436 -1.306,-0.436 l -29.905,0.175 c -1.262,0 -2.263,1.044 -2.176,2.35 l 0.281,10.368 c -1.266,-0.598 -2.554,-1.26 -4.002003,-2.097 -2.059003,-1.176 -4.949003,-3.091 -8.190003,-5.964 -1.796,-1.567 -3.635,-3.134 -5.431,-4.701 l -27.11,-0.348 -5.662,27.882 c 0.327,-0.234 0.73,-0.372 1.168,-0.372 h 60.382006 59.517 c 0.141,0 0.278,0.015 0.411,0.043 z"
     fill="#474961"
     id="path48" />
  <path
     opacity="0.176986"
     d="m 124.11283,443.56415 h 50.428 c 0.113,-0.198 0.197,-0.418 0.246,-0.652 v -0.044 c 0,-0.218 0.044,-0.435 0,-0.653 -0.044,-0.261 -0.044,-0.479 -0.131,-0.74 -0.565,-1.959 -2.089,-3.613 -3.09,-4.527 -0.131,-0.131 -0.218,-0.174 -0.348,-0.261 -1.916,-1.175 -3.875,-2.264 -5.92,-3.178 -4.005,-1.828 -12.885,-5.572 -15.54,-6.921 -3.439,-1.741 -8.184,-4.701 -13.146,-10.012 -0.392,-0.304 -0.827,-0.435 -1.306,-0.435 l -29.905,0.174 c -1.262,0 -1.839,0.917 -1.752,2.223 l 0.294,10.851 c 2.994,1.386 5.987,2.497 10.86,4.817 2.09,1.001 4.092,2.133 6.051,3.395 0.958,0.871 2.612,2.655 3.134,4.745 0.087,0.348 0.087,0.696 0.131,1.001 0,0.073 -0.002,0.146 -0.006,0.217 z"
     fill="#444444"
     id="path49" />
  <path
     d="m 109.67783,422.33315 c 0.149,0.017 0.3,0.026 0.453,0.026 l 28.267,-0.303 h 2.285 c 2.246,0 4.143,-1.732 4.259,-4.297 0.271,-5.176 0.62,-11.988 1.046,-19.862 1.162,-19.861 1.781,-26.186 2.478,-41.491 0.116,-2.566 0.232,-4.866 0.31,-7.033 0.31,-10.307 1.123,-19.95 2.71,-32.556 0.891,-6.989 1.317,-11.324 1.356,-14.996 0.038,-3.406 -0.852,-6.768 -2.556,-9.554 -0.852,-1.372 -1.82,-2.566 -2.982,-3.583 -2.981,-2.61 -6.97,-4.822 -10.145,-4.601 -8.229,0.039 -16.459,0.044 -24.689,0.074 -1.724,-0.409 -3.647,-0.611 -5.769,-0.607 l -4.127,0.044 c 0.024,-0.05 -17.353006,-0.142 -52.130006,-0.276 -10.7725,-8.457 -22.6757,-12.003 -35.709101,-10.638 -5.2020005,0.545 -9.9153999,2.029 -14.14029989,4.454 -4.66390001,2.64 -8.73630001,6.418 -12.21690011,11.335 -2.146099,2.244 -8.588999,12.487 -7.309399,28.088 0.2476,2.873 0.7841,9.272 4.2508,15.366 3.631699,6.355 8.0888991,11.013 15.55869911,13.668 6.60319999,2.351 14.32059989,3.178 22.32699989,2.264 11.280401,-2.148 24.327201,-3.933 39.139201,-5.355 -4,10.947 -6.591,17.828 -7.774,20.643 -1.775,4.179 -6.592,22.221 -8.4018,36.043 -0.885,6.759 -0.576,12.736 0.9268,17.93 0.917,3.167 3.819,5.346 7.116,5.343 l 37.048,-0.039 16.631006,-0.087 z"
     fill="#10b981"
     id="path50" />
  <path
     opacity="0.176986"
     d="m 111.86983,284.15915 c 3.671,0.784 6.472,2.471 8.404,5.061 4.17,5.593 2.969,10.97 2.969,14.278 v 0.218 c -0.041,3.613 -0.495,7.879 -1.403,14.756 -1.692,12.406 -2.559,21.852 -2.889,32.038 -0.083,2.089 -0.207,4.396 -0.33,6.921 -0.702,15.018 -1.404,21.243 -2.642,40.831 -0.495,7.748 -0.866,14.408 -1.114,19.544 -0.124,2.525 -2.146,4.528 -4.54,4.528 h -0.66 c 0.154,0.021 0.309,0.032 0.466,0.032 l 28.267,-0.31 h 2.285 c 2.246,0 4.259,-1.859 4.259,-4.718 0.271,-5.159 0.62,-11.949 1.046,-19.798 1.162,-19.799 1.781,-26.105 2.478,-41.361 0.116,-2.558 0.232,-4.851 0.31,-7.011 0.31,-10.275 1.123,-19.887 2.71,-32.454 0.891,-6.967 1.317,-11.289 1.356,-14.948 0.038,-3.396 -0.852,-6.747 -2.556,-9.525 -0.852,-1.367 -1.82,-2.558 -2.982,-3.572 -2.981,-2.601 -6.97,-4.806 -10.145,-4.586 -8.43,0.04 -16.859,0.044 -25.289,0.076 z"
     fill="#444444"
     id="path51" />
  <path
     d="m 44.376024,203.96215 c 3.7868,2.954 6.8458,7.5 7.4188,9.167 4.753,13.825 10.478,13.277 10.935,16.272 0.684,4.48 -4.561,5.025 -4.561,5.025 -2.436,0.234 -4.288,0.412 -5.556,0.534 l -0.301,12.366 -0.028,0.437 -0.507,21.665 -0.114,4.228 c 0.012,0.349 -0.02,0.655 -0.052,1.004 -0.03,0.393 -0.061,0.743 -0.091,1.136 -0.095,1.005 -0.279,1.969 -0.55,2.937 -0.117,0.396 -0.191,0.791 -0.351,1.188 -36.223401,1.265 -54.4455009,-1.263 -54.6663009,-7.586 l 0.9026,-37.737 -5.4937,-0.186 c 0,0 -5.9707991,-0.402 -5.2890991,-4.909 0.4557,-3.012 7.0039991,-2.767 12.1256991,-16.811 0.7032,-1.928 5.0018,-7.748 10.0811994,-10.743 0.1607,-0.095 0.3223,-0.187 0.4844,-0.276 3.4670005,-1.958 7.4902005,-3.036 11.7542005,-2.934 l 10.026901,0.26 c 5.2553,0.104 10.0441,1.947 13.8313,4.963 z"
     fill="#de3190"
     id="path52" />
  <path
     opacity="0.176986"
     d="m 49.089824,208.74615 c 1.438,1.835 2.439,3.526 2.743,4.409 4.753,13.825 10.44,13.251 10.897,16.246 0.684,4.48 -4.499,5.012 -4.499,5.012 l -5.475,0.53 0.291,-11.965 0.016,-0.785 c 0.137,-4.984 -1.345,-9.633 -3.973,-13.447 z"
     fill="#444444"
     id="path53" />
  <mask
     id="mask0"
     maskUnits="userSpaceOnUse"
     x="32"
     y="157"
     width="130"
     height="128">
    <path
       d="m 78.0739,181.405 c -0.0786,-0.072 -0.1565,-0.148 -0.2331,-0.227 -1.3787,-1.453 -2.1856,-3.762 -1.425,-5.995 0.7083,-2.15 2.8178,-3.892 4.9094,-3.804 1.178,0.036 4.3406,0.76 4.3199,-0.289 l -0.2296,-11.103 c -0.0138,-0.699 0.5307,-1.297 1.2324,-1.31 1.538,-0.057 3.0463,-0.248 4.6684,-0.689 0.1778,-0.025 0.3555,-0.05 0.5332,-0.075 1.4695,-0.239 9.7175,-1.25 14.4435,4.566 0.431,0.482 0.809,1.045 1.178,1.694 0.85,1.485 1.284,3.188 1.275,4.931 l -0.031,7.761 c -0.038,0.781 -0.077,1.563 -0.202,2.335 -1.5,9.657 -5.502,16.478 -9.1341,16.883 -0.4466,0.084 -2.7819,0.232 -5.5595,-0.408 -0.2531,-0.07 -0.0511,0.037 -3.673,-1.235 l -0.5983,5.889 c -1.7283,-0.451 -3.5399,-0.707 -5.4106,-0.744 l -7.4784,-0.193 0.9449,-8.959 0.4095,-3.882 z m 27.5431,83.932 0.367,-15.615 0.038,-1.465 0.022,-0.336 0.175,-7.164 0.137,-5.184 3.539,-0.341 12.216,33.242 c 1.141,0.216 2.462,0.485 4.01,0.814 2.49,-0.013 4.552,0.044 6.185,0.171 6.613,0.517 12.294,0.733 18.946,4.686 12.127,7.206 13.072,10.524 2.837,9.954 l -20.878,-0.121 c -0.26,0.095 -0.52,0.156 -0.779,0.179 0,0 -30.511,-0.269 -91.5317,-0.806 -2.4544,-0.021 -4.7593,-1.183 -6.2374,-3.142 -0.7109,-0.943 -1.2272,-2.667 -1.5487,-5.173 -0.9967,-5.289 1.8513,-12.862 7.2628,-27.574 1.7209,-4.664 3.3508,-8.904 4.8847,-12.673 l 33.7296,1.277 c -2.6017,6.463 -7.1915,21.837 -8.492,24.193 -0.003,0.002 -0.0061,0.003 -0.0092,0.005 9.7131,1.308 21.3509,2.931 35.1269,5.073 z"
       fill="#ffffff"
       id="path54" />
  </mask>
  <g
     mask="url(#mask0)"
     id="g62"
     transform="translate(-53.757176,-0.599854)">
    <path
       d="m 78.0739,181.405 c -0.0786,-0.072 -0.1565,-0.148 -0.2331,-0.227 -1.3787,-1.453 -2.1856,-3.762 -1.425,-5.995 0.7083,-2.15 2.8178,-3.892 4.9094,-3.804 1.178,0.036 4.3406,0.76 4.3199,-0.289 l -0.2296,-11.103 c -0.0138,-0.699 0.5307,-1.297 1.2324,-1.31 1.538,-0.057 3.0463,-0.248 4.6684,-0.689 0.1778,-0.025 0.3555,-0.05 0.5332,-0.075 1.4695,-0.239 9.7175,-1.25 14.4435,4.566 0.431,0.482 0.809,1.045 1.178,1.694 0.85,1.485 1.284,3.188 1.275,4.931 l -0.031,7.761 c -0.038,0.781 -0.077,1.563 -0.202,2.335 -1.5,9.657 -5.502,16.478 -9.1341,16.883 -0.4466,0.084 -2.7819,0.232 -5.5595,-0.408 -0.2531,-0.07 -0.0511,0.037 -3.673,-1.235 l -0.5983,5.889 c -1.7283,-0.451 -3.5399,-0.707 -5.4106,-0.744 l -7.4784,-0.193 0.9449,-8.959 0.4095,-3.882 z m 27.5431,83.932 0.367,-15.615 0.038,-1.465 0.022,-0.336 0.175,-7.164 0.137,-5.184 3.539,-0.341 12.216,33.242 c 1.141,0.216 2.462,0.485 4.01,0.814 2.49,-0.013 4.552,0.044 6.185,0.171 6.613,0.517 12.294,0.733 18.946,4.686 12.127,7.206 13.072,10.524 2.837,9.954 l -20.878,-0.121 c -0.26,0.095 -0.52,0.156 -0.779,0.179 0,0 -30.511,-0.269 -91.5317,-0.806 -2.4544,-0.021 -4.7593,-1.183 -6.2374,-3.142 -0.7109,-0.943 -1.2272,-2.667 -1.5487,-5.173 -0.9967,-5.289 1.8513,-12.862 7.2628,-27.574 1.7209,-4.664 3.3508,-8.904 4.8847,-12.673 l 33.7296,1.277 c -2.6017,6.463 -7.1915,21.837 -8.492,24.193 -0.003,0.002 -0.0061,0.003 -0.0092,0.005 9.7131,1.308 21.3509,2.931 35.1269,5.073 z"
       fill="#f2a98a"
       id="path55" />
    <path
       d="m 89.8237,197.665 -4.0446,-5.129 4.3817,1.902 z"
       fill="#482d1f"
       id="path56" />
    <path
       d="m 105.869,176.448 c 0.05,-0.596 0.525,-1.039 1.122,-1.035 0.366,-0.026 0.705,0.224 0.887,0.849 0.382,1.522 -1.066,3.81 -1.727,2.9 -0.408,-0.564 -0.317,-1.892 -0.282,-2.714 z m -9.614,-0.2 c 0.0502,-0.596 0.5248,-1.039 1.1225,-1.036 0.3659,-0.025 0.7051,0.224 0.8867,0.85 0.3822,1.522 -1.0664,3.809 -1.7276,2.899 -0.4071,-0.564 -0.316,-1.891 -0.2816,-2.713 z"
       fill="#482d1f"
       id="path57" />
    <path
       d="m 103.635,176.913 0.685,4.183 c 0.039,0.532 -0.33,1.05 -0.838,1.085 -0.299,0.045 -0.491,0.059 -1.265,0.098 -0.346,0.018 -0.583,0.032 -0.863,0.051 -0.24,0.017 -0.448,-0.164 -0.465,-0.404 -0.016,-0.239 0.165,-0.447 0.404,-0.464 0.286,-0.02 0.528,-0.034 0.879,-0.052 0.743,-0.038 0.924,-0.051 1.217,-0.094 0.019,-0.002 0.071,-0.074 0.068,-0.119 l -0.681,-4.143 c -0.039,-0.238 0.122,-0.461 0.359,-0.5 0.237,-0.039 0.461,0.122 0.5,0.359 z"
       fill="#482d1f"
       id="path58" />
    <path
       d="m 100.893,184.997 c -0.296,-0.075 -1.0231,-0.358 -1.1391,-0.827 -0.0067,-0.095 -0.058,-0.235 -0.0199,-0.285 0.1489,-0.249 0.7,-0.097 1.455,-0.007 1.341,0.145 2.458,0.067 2.458,0.067 0,0 -0.316,0.834 -0.506,1.086 -0.416,0.601 -1.78,0.124 -2.248,-0.034 z"
       fill="#482d1f"
       id="path59" />
    <path
       d="m 89.7276,174.431 c 0.7774,-2.233 2.8245,-3.903 5.3326,-4.078 3.3575,-0.235 6.2698,2.297 6.5048,5.654 0.003,0.049 0.006,0.097 0.008,0.146 0.055,-0.011 0.112,-0.015 0.17,-0.011 l 1.226,0.086 c 0.269,-2.922 2.622,-5.302 5.644,-5.514 3.357,-0.234 6.269,2.297 6.504,5.655 0.235,3.357 -2.297,6.269 -5.654,6.504 -3.25,0.227 -6.083,-2.138 -6.474,-5.335 l -1.337,-0.093 c -0.052,-0.004 -0.103,-0.013 -0.151,-0.029 -0.444,2.728 -2.7141,4.894 -5.5906,5.096 -3.3575,0.234 -6.2696,-2.297 -6.5043,-5.655 -0.0274,-0.392 -0.0172,-0.777 0.0277,-1.154 l -3.1693,-0.778 c -0.3502,-0.086 -0.5644,-0.44 -0.4784,-0.79 0.086,-0.35 0.4396,-0.564 0.7898,-0.478 z m 14.5264,2.564 c 10e-4,0.044 0.004,0.088 0.007,0.133 0.185,2.638 2.473,4.627 5.111,4.442 2.638,-0.184 4.627,-2.472 4.442,-5.11 -0.184,-2.638 -2.472,-4.627 -5.11,-4.443 -2.537,0.177 -4.474,2.3 -4.455,4.809 0.008,0.047 0.01,0.096 0.007,0.146 -0.001,0.008 -0.002,0.015 -0.002,0.023 z m -8.4347,4.214 c 2.6381,-0.185 4.6267,-2.473 4.4427,-5.111 -0.185,-2.638 -2.4727,-4.627 -5.1107,-4.442 -2.638,0.184 -4.627,2.472 -4.4425,5.11 0.1844,2.638 2.4725,4.627 5.1105,4.443 z"
       fill="#482d1f"
       id="path60" />
    <path
       d="m 65.5945,263.974 c -0.3165,0.173 -0.7132,0.056 -0.8859,-0.26 -0.1728,-0.317 -0.0562,-0.713 0.2603,-0.886 l 5.4412,-2.97 c 0.3165,-0.172 0.7132,-0.056 0.8859,0.261 0.1728,0.316 0.0562,0.713 -0.2603,0.886 z m 13.8253,-27.442 c -0.1409,0.332 -0.5242,0.487 -0.8561,0.346 -0.332,-0.141 -0.4869,-0.524 -0.3461,-0.856 l 5.8298,-13.741 c 0.1408,-0.332 0.5241,-0.487 0.8561,-0.346 0.332,0.14 0.4869,0.524 0.3461,0.856 z"
       fill="#482d1f"
       id="path61" />
    <path
       opacity="0.2"
       d="m 105.612,265.463 0.399,-17.061 0.028,-0.436 0.302,-12.4 3.542,-0.343 12.19,33.331 z"
       fill="#8c2a00"
       id="path62" />
  </g>
  <path
     d="m 32.580824,173.97215 c -0.1782,-0.322 -0.8607,-1.452 -2.106,-2.326 -0.1208,-0.1 -1.0664,-0.681 -2.2444,-0.717 -2.091601,-0.089 -4.201201,1.659 -4.909401,3.817 -0.7607,2.24 0.003,4.552 1.3817,6.01 1.0645,1.126 2.3571,1.571 3.147901,1.763 -0.0077,1.478 0.0229,3.085 0.092,4.819 -3.375801,-0.221 -6.350501,-1.692 -8.924101,-4.414 -1.0642,-1.118 -3.8899,-4.217 -4.7702,-9.168 -0.1011,-0.629 -0.3018,-1.832 -0.3194,-3.322 -6.6980999,0.11 -12.1149999,-2.882 -14.10709989,-7.126 -1.85590001,-3.998 -0.5678,-8.784 -0.3847,-9.461 1.83749999,-6.819 8.02439999,-6.741 8.55379969,-6.754 0,0 8.9192002,-3.099 15.9694002,11.167 0.0045,0.009 0.009,0.018 0.0135,0.028 2.0211,-0.159 4.472701,-0.016 8.207901,-0.242 1.3648,-0.075 3.3555,-0.409 5.8002,-0.765 0.1732,0.019 2.2632,-0.194 2.4409,-0.219 0.8831,0 3.8421,-0.279 7.668,1.435 3.827,1.713 5.239,4.29 5.182,4.398 -0.109,0.207 -2.063,1.09 -3.229,1.362 -3.274,0.75 -6.118,0.32 -7.8657,-0.127 -0.46,1.046 -1.1115,2.247 -1.9794,3.425 -2.5125,3.5 -5.6793,5.312 -7.6545,6.199 0.012,0.072 0.0242,0.145 0.0366,0.218 z"
     fill="#482d1f"
     id="path63" />
  <path
     d="m 62.989824,342.85215 12.626,-13.25 c 0.249,-0.261 0.239,-0.674 -0.022,-0.923 -0.261,-0.248 -0.675,-0.238 -0.923,0.023 l -12.627,13.249 c -0.249,0.262 -0.239,0.675 0.022,0.924 0.262,0.248 0.675,0.238 0.924,-0.023 z"
     fill="#482d1f"
     id="path64" />
  <path
     d="M 335.23083,282.94115 H -13.004276 c -1.6829,0 -3.0471,1.364 -3.0471,3.047 0,1.683 1.3642,3.047 3.0471,3.047 H 335.23083 c 1.683,0 3.047,-1.364 3.047,-3.047 0,-1.683 -1.364,-3.047 -3.047,-3.047 z"
     fill="#d8deed"
     id="path65" />
  <path
     d="m 354.81883,9.5764462 h -143.211 c -4.808,0 -8.706,3.8976998 -8.706,8.7058998 V 124.05915 c 0,4.808 3.898,8.706 8.706,8.706 h 143.211 c 4.809,0 8.706,-3.898 8.706,-8.706 V 18.282346 c 0,-4.8082 -3.897,-8.7058998 -8.706,-8.7058998 z"
     fill="#f2f6fb"
     id="path66" />
  <path
     d="m 214.58283,50.992446 h 55.589 c 1.202,0 2.177,0.9744 2.177,2.1765 v 1.6095 c 0,1.2021 -0.975,2.1765 -2.177,2.1765 h -55.589 c -1.202,0 -2.177,-0.9744 -2.177,-2.1765 v -1.6095 c 0,-1.2021 0.975,-2.1765 2.177,-2.1765 z m 0,9.6891 h 63.082 c 1.202,0 2.177,0.9744 2.177,2.1765 v 1.6095 c 0,1.2021 -0.975,2.1765 -2.177,2.1765 h -63.082 c -1.202,0 -2.177,-0.9744 -2.177,-2.1765 v -1.6095 c 0,-1.2021 0.975,-2.1765 2.177,-2.1765 z m 0,19.3782 h 70.575 c 1.202,0 2.177,0.9744 2.177,2.1765 v 1.6096 c 0,1.202 -0.975,2.1764 -2.177,2.1764 h -70.575 c -1.202,0 -2.177,-0.9744 -2.177,-2.1764 v -1.6096 c 0,-1.2021 0.975,-2.1765 2.177,-2.1765 z m 0,9.6891 h 48.097 c 1.202,0 2.176,0.9745 2.176,2.1765 v 1.6096 c 0,1.202 -0.974,2.1764 -2.176,2.1764 h -48.097 c -1.202,0 -2.177,-0.9744 -2.177,-2.1764 v -1.6096 c 0,-1.202 0.975,-2.1765 2.177,-2.1765 z m 0,9.689308 h 63.082 c 1.202,0 2.177,0.973996 2.177,2.175996 v 1.61 c 0,1.202 -0.975,2.176 -2.177,2.176 h -63.082 c -1.202,0 -2.177,-0.974 -2.177,-2.176 v -1.61 c 0,-1.202 0.975,-2.175996 2.177,-2.175996 z m 0,9.688996 h 70.575 c 1.202,0 2.177,0.974 2.177,2.176 v 1.61 c 0,1.202 -0.975,2.176 -2.177,2.176 h -70.575 c -1.202,0 -2.177,-0.974 -2.177,-2.176 v -1.61 c 0,-1.202 0.975,-2.176 2.177,-2.176 z"
     fill="#e1e5f0"
     id="path67" />
  <path
     d="m 285.15783,41.561046 h -70.575 c -1.202,0 -2.177,0.9744 -2.177,2.1765 v 1.1949 c 0,1.202 0.975,2.1764 2.177,2.1764 h 70.575 c 1.202,0 2.177,-0.9744 2.177,-2.1764 v -1.1949 c 0,-1.2021 -0.975,-2.1765 -2.177,-2.1765 z"
     fill="#d8deed"
     id="path68" />
  <path
     d="m 307.27183,50.992446 h 48.374 c 1.202,0 2.177,0.9744 2.177,2.1765 v 1.6906 c 0,1.2021 -0.975,2.1765 -2.177,2.1765 h -48.374 c -1.202,0 -2.177,-0.9744 -2.177,-2.1765 v -1.6906 c 0,-1.2021 0.975,-2.1765 2.177,-2.1765 z m 0,9.8208 h 33.309 c 1.202,0 2.177,0.9745 2.177,2.1765 v 1.6907 c 0,1.202 -0.975,2.1764 -2.177,2.1764 h -33.309 c -1.202,0 -2.177,-0.9744 -2.177,-2.1764 v -1.6907 c 0,-1.202 0.975,-2.1765 2.177,-2.1765 z m 0,9.8209 h 40.842 c 1.202,0 2.176,0.9744 2.176,2.1765 v 1.6906 c 0,1.2021 -0.974,2.1765 -2.176,2.1765 h -40.842 c -1.202,0 -2.177,-0.9744 -2.177,-2.1765 v -1.6906 c 0,-1.2021 0.975,-2.1765 2.177,-2.1765 z m 0,9.8209 h 25.777 c 1.202,0 2.176,0.9744 2.176,2.1764 v 1.6907 c 0,1.202 -0.974,2.1765 -2.176,2.1765 h -25.777 c -1.202,0 -2.177,-0.9745 -2.177,-2.1765 v -1.6907 c 0,-1.202 0.975,-2.1764 2.177,-2.1764 z"
     fill="#e1e5f0"
     id="path69" />
  <path
     d="m 202.90183,16.543346 c 0,-3.8477 3.118,-6.9668998 6.966,-6.9668998 h 146.691 c 3.847,0 6.966,3.1182998 6.966,6.9668998 v 6.967 h -160.623 z"
     fill="#e1e5f0"
     id="path70" />
</svg>
