<?xml version="1.0" encoding="UTF-8" standalone="no"?>
<svg
   width="531"
   height="419"
   viewBox="0 0 374 443"
   fill="none"
   version="1.1"
   id="svg56"
   sodipodi:docname="image-2.svg"
   inkscape:version="1.3.2 (091e20e, 2023-11-25)"
   xmlns:inkscape="http://www.inkscape.org/namespaces/inkscape"
   xmlns:sodipodi="http://sodipodi.sourceforge.net/DTD/sodipodi-0.dtd"
   xmlns="http://www.w3.org/2000/svg"
   xmlns:svg="http://www.w3.org/2000/svg">
  <defs
     id="defs56">
    <linearGradient
       id="swatch57"
       inkscape:swatch="solid">
      <stop
         style="stop-color:#00a600;stop-opacity:1;"
         offset="0"
         id="stop57" />
    </linearGradient>
  </defs>
  <sodipodi:namedview
     id="namedview56"
     pagecolor="#505050"
     bordercolor="#eeeeee"
     borderopacity="1"
     inkscape:showpageshadow="0"
     inkscape:pageopacity="0"
     inkscape:pagecheckerboard="0"
     inkscape:deskcolor="#505050"
     inkscape:export-bgcolor="#ffffff00"
     inkscape:zoom="2.026738"
     inkscape:cx="187"
     inkscape:cy="221.53826"
     inkscape:window-width="3360"
     inkscape:window-height="1837"
     inkscape:window-x="1728"
     inkscape:window-y="25"
     inkscape:window-maximized="1"
     inkscape:current-layer="svg56" />
  <mask
     id="mask0"
     style="mask-type:alpha"
     maskUnits="userSpaceOnUse"
     x="132"
     y="54"
     width="29"
     height="88">
    <path
       d="M137.816 54.0327H154.627C156.567 54.0327 157.271 54.2347 157.98 54.6141C158.689 54.9935 159.246 55.5502 159.626 56.2596C160.005 56.9689 160.207 57.6726 160.207 59.6129V135.519C160.207 137.46 160.005 138.163 159.626 138.873C159.246 139.582 158.689 140.139 157.98 140.518C157.271 140.897 156.567 141.099 154.627 141.099H137.816C135.875 141.099 135.172 140.897 134.462 140.518C133.753 140.139 133.196 139.582 132.817 138.873C132.438 138.163 132.235 137.46 132.235 135.519V59.6129C132.235 57.6726 132.438 56.9689 132.817 56.2596C133.196 55.5502 133.753 54.9935 134.462 54.6141C135.172 54.2347 135.875 54.0327 137.816 54.0327Z"
       fill="white"
       id="path2" />
  </mask>
  <mask
     id="mask1"
     style="mask-type:alpha"
     maskUnits="userSpaceOnUse"
     x="93"
     y="54"
     width="29"
     height="88">
    <path
       d="M99.1884 54.0327H115.999C117.94 54.0327 118.643 54.2347 119.353 54.6141C120.062 54.9935 120.619 55.5502 120.998 56.2596C121.378 56.9689 121.58 57.6726 121.58 59.6129V135.519C121.58 137.46 121.378 138.163 120.998 138.873C120.619 139.582 120.062 140.139 119.353 140.518C118.643 140.897 117.94 141.099 115.999 141.099H99.1884C97.248 141.099 96.5444 140.897 95.835 140.518C95.1257 140.139 94.5689 139.582 94.1896 138.873C93.8102 138.163 93.6082 137.46 93.6082 135.519V59.6129C93.6082 57.6726 93.8102 56.9689 94.1896 56.2596C94.5689 55.5502 95.1257 54.9935 95.835 54.6141C96.5444 54.2347 97.248 54.0327 99.1884 54.0327Z"
       fill="white"
       id="path5" />
  </mask>
  <mask
     id="mask2"
     style="mask-type:alpha"
     maskUnits="userSpaceOnUse"
     x="54"
     y="54"
     width="29"
     height="88">
    <path
       d="M60.5611 54.0327H77.3721C79.3125 54.0327 80.0161 54.2347 80.7255 54.6141C81.4348 54.9935 81.9916 55.5502 82.3709 56.2596C82.7503 56.9689 82.9523 57.6726 82.9523 59.6129V135.519C82.9523 137.46 82.7503 138.163 82.3709 138.873C81.9916 139.582 81.4348 140.139 80.7255 140.518C80.0161 140.897 79.3125 141.099 77.3721 141.099H60.5611C58.6207 141.099 57.9171 140.897 57.2077 140.518C56.4983 140.139 55.9416 139.582 55.5622 138.873C55.1829 138.163 54.9808 137.46 54.9808 135.519V59.6129C54.9808 57.6726 55.1829 56.9689 55.5622 56.2596C55.9416 55.5502 56.4983 54.9935 57.2077 54.6141C57.9171 54.2347 58.6207 54.0327 60.5611 54.0327Z"
       fill="white"
       id="path8" />
  </mask>
  <path
     d="m 264.10983,36.336589 h -158.882 c -4.808,0 -8.705999,3.897757 -8.705999,8.705887 V 159.96007 c 0,4.808 3.897999,8.706 8.705999,8.706 h 158.882 c 4.808,0 8.706,-3.898 8.706,-8.706 V 45.042476 c 0,-4.80813 -3.898,-8.705887 -8.706,-8.705887 z"
     fill="#f2f6fb"
     id="path12" />
  <path
     d="m 186.65783,73.866866 27.95,8.5879 29.519,16.3457 1.96,-3.4107 -29.885,-16.5487 -30.04,-9.2301 -30.292,17.4731 -30.221,10.2157 1.3,3.702504 30.598,-10.343304 z"
     fill="#d8deed"
     id="path13" />
  <path
     d="m 125.12183,104.32147 c -2.737,0 -4.955,-2.1688 -4.955,-4.844104 0,-2.6753 2.218,-4.8441 4.955,-4.8441 2.736,0 4.954,2.1688 4.954,4.8441 0,2.675304 -2.218,4.844104 -4.954,4.844104 z m 29.727,-11.072204 c -2.736,0 -4.954,-2.1688 -4.954,-4.8441 0,-2.6754 2.218,-4.8441 4.954,-4.8441 2.737,0 4.955,2.1687 4.955,4.8441 0,2.6753 -2.218,4.8441 -4.955,4.8441 z m 29.728,-16.6084 c -2.736,0 -4.954,-2.1688 -4.954,-4.8441 0,-2.6753 2.218,-4.8441 4.954,-4.8441 2.737,0 4.955,2.1688 4.955,4.8441 0,2.6753 -2.218,4.8441 -4.955,4.8441 z m 29.728,8.3042 c -2.736,0 -4.955,-2.1688 -4.955,-4.8441 0,-2.6753 2.219,-4.8441 4.955,-4.8441 2.736,0 4.955,2.1688 4.955,4.8441 0,2.6753 -2.219,4.8441 -4.955,4.8441 z m 29.728,17.992404 c -2.737,0 -4.955,-2.1688 -4.955,-4.844104 0,-2.6754 2.218,-4.8441 4.955,-4.8441 2.736,0 4.954,2.1687 4.954,4.8441 0,2.675304 -2.218,4.844104 -4.954,4.844104 z"
     fill="#ffcb3d"
     id="path14" />
  <path
     d="m 198.50883,124.01047 v 22.9126 c 0,0.922 -0.748,1.672 -1.671,1.672 h -0.902 c -0.922,0 -1.671,-0.748 -1.671,-1.672 v -22.9126 c 0,-0.9219 0.748,-1.6724 1.671,-1.6724 h 0.902 c 0.922,0 1.671,0.7487 1.671,1.6724 z m -8.489,4.1445 v 18.7691 c 0,0.923 -0.748,1.671 -1.671,1.671 h -0.902 c -0.922,0 -1.671,-0.748 -1.671,-1.671 v -18.7691 c 0,-0.9227 0.748,-1.671 1.671,-1.671 h 0.902 c 0.922,0 1.671,0.7481 1.671,1.671 z m -8.489,-12.4366 v 31.2047 c 0,0.927 -0.748,1.672 -1.671,1.672 h -0.902 c -0.922,0 -1.671,-0.748 -1.671,-1.672 v -31.2047 c 0,-0.9265 0.748,-1.6722 1.671,-1.6722 h 0.902 c 0.922,0 1.671,0.7487 1.671,1.6722 z m -8.489,8.2921 v 22.9126 c 0,0.922 -0.748,1.672 -1.671,1.672 h -0.902 c -0.923,0 -1.672,-0.748 -1.672,-1.672 v -22.9126 c 0,-0.9219 0.749,-1.6724 1.672,-1.6724 h 0.902 c 0.922,0 1.671,0.7487 1.671,1.6724 z m -8.489,-12.4351 v 35.3447 c 0,0.928 -0.749,1.675 -1.672,1.675 h -0.901 c -0.923,0 -1.672,-0.749 -1.672,-1.675 v -35.3447 c 0,-0.9281 0.749,-1.6751 1.672,-1.6751 h 0.901 c 0.923,0 1.672,0.75 1.672,1.6751 z m -8.489,4.143 v 31.2047 c 0,0.927 -0.749,1.672 -1.672,1.672 h -0.901 c -0.923,0 -1.672,-0.748 -1.672,-1.672 v -31.2047 c 0,-0.9265 0.748,-1.6722 1.672,-1.6722 h 0.901 c 0.923,0 1.672,0.7487 1.672,1.6722 z m -8.49,-6.9055 v 38.1062 c 0,0.93 -0.748,1.676 -1.671,1.676 h -0.902 c -0.922,0 -1.671,-0.75 -1.671,-1.676 v -38.1062 c 0,-0.9305 0.748,-1.6766 1.671,-1.6766 h 0.902 c 0.922,0 1.671,0.7507 1.671,1.6766 z m -8.489,-2.7676 v 40.8778 c 0,0.923 -0.748,1.672 -1.671,1.672 h -0.902 c -0.922,0 -1.671,-0.748 -1.671,-1.672 v -40.8778 c 0,-0.9239 0.748,-1.6729 1.671,-1.6729 h 0.902 c 0.922,0 1.671,0.749 1.671,1.6729 z m -8.489,9.6731 v 31.2047 c 0,0.927 -0.748,1.672 -1.671,1.672 h -0.902 c -0.922,0 -1.671,-0.748 -1.671,-1.672 v -31.2047 c 0,-0.9265 0.748,-1.6722 1.671,-1.6722 h 0.902 c 0.922,0 1.671,0.7487 1.671,1.6722 z m 118.849,8.2921 v 22.9126 c 0,0.922 -0.749,1.672 -1.672,1.672 h -0.902 c -0.922,0 -1.671,-0.748 -1.671,-1.672 v -22.9126 c 0,-0.9219 0.748,-1.6724 1.671,-1.6724 h 0.902 c 0.922,0 1.672,0.7487 1.672,1.6724 z m -8.49,-12.4351 v 35.3447 c 0,0.928 -0.748,1.675 -1.671,1.675 h -0.902 c -0.922,0 -1.671,-0.749 -1.671,-1.675 v -35.3447 c 0,-0.9281 0.748,-1.6751 1.671,-1.6751 h 0.902 c 0.922,0 1.671,0.75 1.671,1.6751 z m -8.489,4.143 v 31.2047 c 0,0.927 -0.748,1.672 -1.671,1.672 h -0.902 c -0.922,0 -1.671,-0.748 -1.671,-1.672 v -31.2047 c 0,-0.9265 0.748,-1.6722 1.671,-1.6722 h 0.902 c 0.922,0 1.671,0.7487 1.671,1.6722 z m -8.489,-6.9055 v 38.1062 c 0,0.93 -0.748,1.676 -1.671,1.676 h -0.902 c -0.923,0 -1.672,-0.75 -1.672,-1.676 v -38.1062 c 0,-0.9305 0.749,-1.6766 1.672,-1.6766 h 0.902 c 0.922,0 1.671,0.7507 1.671,1.6766 z m -8.489,-2.7676 v 40.8778 c 0,0.923 -0.749,1.672 -1.672,1.672 h -0.901 c -0.923,0 -1.672,-0.748 -1.672,-1.672 v -40.8778 c 0,-0.9239 0.749,-1.6729 1.672,-1.6729 h 0.901 c 0.923,0 1.672,0.749 1.672,1.6729 z m -8.489,9.6731 v 31.2047 c 0,0.927 -0.749,1.672 -1.672,1.672 h -0.901 c -0.923,0 -1.672,-0.748 -1.672,-1.672 v -31.2047 c 0,-0.9265 0.748,-1.6722 1.672,-1.6722 h 0.901 c 0.923,0 1.672,0.7487 1.672,1.6722 z"
     fill="#d8deed"
     id="path15" />
  <path
     d="M270.305 438.242L313.541 406.03C314.412 405.377 315.674 405.551 316.327 406.422C316.98 407.292 316.806 408.555 315.935 409.207L272.232 441.767C271.361 442.42 270.099 442.246 269.446 441.376C268.793 440.505 268.967 439.243 269.838 438.59L270.305 438.242H270.926C272.014 438.242 272.928 439.136 272.928 440.2C272.885 441.308 272.014 442.159 270.926 442.159H246.767C245.679 442.159 244.765 441.265 244.765 440.2C244.765 439.136 245.679 438.242 246.767 438.242H270.305ZM347.015 442.249H302.354C301.309 442.249 300.395 441.495 300.395 440.591V439.988C300.395 439.084 301.266 438.331 302.354 438.331H346.972C348.017 438.331 348.931 439.084 348.931 439.988V440.591C349.018 441.495 348.104 442.249 347.015 442.249Z"
     fill="#FF5645"
     id="path20" />
  <path
     d="M306.261 416.415C306.91 416.684 317.571 416.282 338.244 415.211L345.68 438.331H302.354C302.341 438.331 302.329 438.331 302.316 438.331C305.142 424.26 306.467 416.947 306.294 416.391L306.261 416.415ZM313.377 406.152L270.305 438.242H246.767C246.502 438.242 246.247 438.295 246.013 438.39C245.975 438.204 245.948 438.019 245.94 437.847C245.984 437.542 245.984 437.194 246.071 436.845C246.288 436.062 246.637 435.322 247.028 434.669C248.291 432.667 250.554 431.274 250.554 431.274C253.166 429.576 255.56 428.444 258.389 427.225C259.869 426.572 261.959 425.702 264.397 424.744C265.18 422.22 265.964 419.695 266.747 417.127C268.227 412.208 269.707 407.332 271.144 402.457L297.348 383.435L313.377 406.152Z"
     fill="#474961"
     id="path21" />
  <path
     d="M305.779 395.464C302.869 397.241 297.816 398.564 289.883 401.243C275.311 406.176 269.485 409.411 265.193 406.108C263.758 405.051 263.08 403.796 262.814 403.197C256.118 387.628 230.294 343.744 216.821 311.228C216.802 311.145 216.751 311.112 216.732 311.029C212.409 300.548 217.337 288.832 227.719 285.276C231.152 284.097 234.594 282.959 238.026 281.779C241.137 280.734 244.373 280.532 247.476 281.066L247.305 280.781L350.985 277.821C352.77 278.702 353.926 282.298 355.96 287.944C357.993 293.591 358.638 303.43 358.464 304.551C358.464 313.32 356.897 321.369 354.285 327.575C352.457 331.859 350.193 335.263 347.581 337.425C347.132 337.803 346.675 338.142 346.21 338.442C346.21 339.045 346.21 339.654 346.21 340.27C346.21 363.038 345.426 395.571 345.165 406.387C345.122 407.818 345.296 411.69 342.684 414.131C341.944 414.846 341.204 415.141 339.811 415.772C338.723 416.277 333.847 417.792 324.097 418.634C323.487 418.676 322.834 418.718 322.182 418.676C312.405 418.308 309.788 417.661 306.09 416.543L315.935 409.208C316.806 408.555 316.98 407.292 316.327 406.422C315.674 405.551 314.412 405.377 313.541 406.03L313.34 406.18L305.779 395.464ZM296.076 360.165C295.794 356.877 295.544 353.222 295.324 349.15L294.566 336.754L282.67 332.366C287.166 341.501 291.655 350.796 296.076 360.165Z"
     fill="#A339FF"
     id="path22"
     style="fill:#ff7f2a" />
  <path
     opacity="0.176986"
     d="M346.21 338.279C346.216 330.345 346.26 323.551 346.34 319.067C346.427 315.238 347.08 294.194 338.636 289.817C337.896 289.439 337.156 289.144 335.676 288.597C334.5 288.176 328.406 285.988 320.571 286.324C315.478 286.535 307.817 286.871 301.505 292.132C292.799 299.413 293.017 310.903 293.104 312.754L294.56 336.578L282.601 332.15C275.767 318.266 268.918 304.752 262.269 291.908C258.983 285.575 252.863 281.553 246.3 280.825L350.985 277.658C352.77 278.539 353.926 282.135 355.96 287.782C357.993 293.428 358.638 303.268 358.464 304.389C358.464 313.158 356.897 321.206 354.285 327.413C352.457 331.697 350.193 335.101 347.581 337.263C347.132 337.641 346.675 337.98 346.21 338.279Z"
     fill="#444444"
     id="path23" />
  <path
     d="M306.578 395.804C308.519 394.475 309.969 392.952 310.355 391.441C310.919 389.337 310.534 387.36 309.662 385.412C304.894 374.755 301.591 367.687 299.747 364.196C299.579 363.877 299.184 363.755 298.865 363.924C298.546 364.092 298.424 364.487 298.593 364.806C300.419 368.264 303.713 375.314 308.47 385.945C309.23 387.645 309.564 389.351 309.092 391.11C308.805 392.234 307.539 393.564 305.84 394.727C305.542 394.931 305.466 395.337 305.67 395.635C305.874 395.932 306.28 396.008 306.578 395.804Z"
     fill="#482D1F"
     id="path24" />
  <mask
     id="mask3"
     style="mask-type:alpha"
     maskUnits="userSpaceOnUse"
     x="259"
     y="188"
     width="115"
     height="92">
    <path
       d="M352.219 249.956C353.235 259.138 353.26 266.797 352.497 271.849C352.497 271.98 352.456 272.156 352.416 272.288C352.213 273.648 351.93 274.789 351.565 275.71C351.525 275.798 351.484 275.886 351.444 275.974C349.379 279.309 333.06 278.124 329.213 278.255C322.896 278.475 283.314 279.591 282.383 278.977C281.937 278.67 281.411 275.272 280.966 274.789C279.451 273.229 280.098 263.686 281.533 252.25L259.638 250.392C261.167 238.85 262.193 232.325 262.715 230.816C264.238 226.506 268.619 218.341 269.62 214.511C272.406 203.672 275.845 199.624 277.02 198.448C278.37 197.055 279.675 196.098 280.546 195.488C286.423 191.44 292.647 190.831 295.825 190.744C295.869 190.722 299.124 190.497 302.328 190.282C304.903 189.47 308.214 189.22 313.218 189.22C316.881 189.22 320.008 189.441 322.586 189.747C321.857 188.856 321.713 188.625 323.423 188.698L338.875 189.351C338.963 189.351 339.05 189.351 339.137 189.394C342.314 189.481 348.539 190.091 354.415 194.139C355.286 194.748 356.592 195.706 357.941 197.099C359.117 198.274 362.555 202.323 365.341 213.161C366.342 216.992 370.672 224.038 372.196 228.348C373.211 231.221 373.785 237.389 373.917 246.853C367.462 248.156 360.23 249.19 352.219 249.956V249.956Z"
       fill="white"
       id="path25" />
  </mask>
  <g
     mask="url(#mask3)"
     id="g27">
    <path
       d="M352.219 249.956C353.235 259.138 353.26 266.797 352.497 271.849C352.497 271.98 352.456 272.156 352.416 272.288C352.213 273.648 351.93 274.789 351.565 275.71C351.525 275.798 351.484 275.886 351.444 275.974C349.379 279.309 333.06 278.124 329.213 278.255C322.896 278.475 283.314 279.591 282.383 278.977C281.937 278.67 281.411 275.272 280.966 274.789C279.451 273.229 280.098 263.686 281.533 252.25L259.638 250.392C261.167 238.85 262.193 232.325 262.715 230.816C264.238 226.506 268.619 218.341 269.62 214.511C272.406 203.672 275.845 199.624 277.02 198.448C278.37 197.055 279.675 196.098 280.546 195.488C286.423 191.44 292.647 190.831 295.825 190.744C295.869 190.722 299.124 190.497 302.328 190.282C304.903 189.47 308.214 189.22 313.218 189.22C316.881 189.22 320.008 189.441 322.586 189.747C321.857 188.856 321.713 188.625 323.423 188.698L338.875 189.351C338.963 189.351 339.05 189.351 339.137 189.394C342.314 189.481 348.539 190.091 354.415 194.139C355.286 194.748 356.592 195.706 357.941 197.099C359.117 198.274 362.555 202.323 365.341 213.161C366.342 216.992 370.672 224.038 372.196 228.348C373.211 231.221 373.785 237.389 373.917 246.853C367.462 248.156 360.23 249.19 352.219 249.956V249.956Z"
       fill="#FF5645"
       id="path26" />
    <path
       d="M304.739 189.801C301.201 190.818 298.983 194.362 298.084 200.434C297.186 206.507 296.099 224.354 294.824 253.977L314.759 260.154L335.599 254.588C334.311 222.971 333.244 204.793 332.398 200.054C331.128 192.945 329.923 191.538 325.77 189.801C321.616 188.064 317.67 188.307 313.061 188.727C309.988 189.006 307.214 189.364 304.739 189.801Z"
       fill="#FFCB3D"
       id="path27" />
  </g>
  <path
     d="M323.118 176.691L323.597 190.744C323.597 191.048 323.466 191.353 323.205 191.484C322.073 192.18 320.463 192.964 318.46 193.399C314.847 194.226 311.757 193.617 310.015 193.094C309.667 193.007 309.406 192.659 309.406 192.311L309.239 184.733C306.978 185.574 307.104 185.489 306.881 185.564C304.139 186.26 301.788 186.173 301.353 186.086C299.786 185.955 298.132 184.65 296.652 182.43C294.65 179.47 292.865 174.855 291.907 169.327C291.733 168.544 291.69 167.76 291.646 166.977L291.472 159.185C291.428 157.444 291.864 155.746 292.691 154.135C293.039 153.439 293.387 152.873 293.823 152.394C293.837 152.376 293.851 152.358 293.865 152.34C293.88 152.315 293.895 152.289 293.91 152.264C297.261 147.606 304.27 146.997 307.491 147.345C307.883 147.388 309.275 147.563 311.278 147.693C312.366 147.78 313.237 147.78 313.759 147.824C320.245 148.085 322.813 147.301 326.078 149.043C326.687 149.347 328.08 150.131 329.299 151.654C332.738 155.964 331.735 161.535 331.518 163.19C330.734 168.152 328.037 171.199 327.166 172.461C326.253 173.808 324.541 175.442 323.118 176.691ZM263.403 271.786C260.047 267.135 259.981 258.963 260.866 250.435C261.835 250.435 268.716 250.928 281.509 251.915C284.134 252.133 288.579 252.662 294.843 253.503L317.888 258.787L344.97 252.164L344.839 250.931C348.586 250.449 351.316 250.085 353.03 249.84C357.635 249.183 364.382 248.194 373.272 246.873C374.403 260.255 372.463 275.091 359.639 279.326H305.47L258.66 280.705C257.939 280.726 257.337 280.159 257.316 279.438C257.308 279.152 257.394 278.871 257.56 278.638C259.523 275.901 261.471 273.617 263.403 271.786Z"
     fill="#DB9E75"
     id="path28" />
  <path
     opacity="0.2"
     d="M263.437 271.833C260.048 267.189 259.979 258.991 260.866 250.435C261.835 250.435 266.798 250.774 275.755 251.451C278.864 251.572 285.226 252.256 294.843 253.503C303.972 255.596 311.718 257.372 318.081 258.831L293.393 264.868C292.734 264.643 292.057 264.439 291.361 264.258C279.869 261.281 270.728 266.662 267.507 268.666C266.017 269.592 264.663 270.68 263.437 271.833Z"
     fill="#8C2A00"
     id="path29" />
  <path
     d="M331.032 165.276C329.106 164.792 326.986 164.211 324.795 163.577C324.64 162.977 324.379 162.394 323.99 161.851C322.597 159.892 319.81 158.793 317.72 159.49C316.708 159.827 315.986 160.552 315.75 160.802C310.457 159.095 305.778 157.447 303.589 156.537C301.036 155.475 299.338 154.463 298.494 153.499C295.454 155.293 293.118 156.489 291.487 157.086C291.675 156.011 292.041 154.959 292.563 153.943C292.911 153.246 293.26 152.68 293.695 152.201C293.709 152.183 293.723 152.165 293.737 152.147C293.753 152.122 293.767 152.096 293.782 152.071C297.134 147.413 304.142 146.804 307.363 147.152C307.755 147.196 309.148 147.37 311.15 147.5C312.238 147.587 313.109 147.587 313.631 147.631C320.117 147.892 322.686 147.108 325.95 148.85C326.56 149.154 327.953 149.938 329.171 151.461C332.61 155.771 331.783 161.343 331.566 162.997C331.438 163.807 331.254 164.567 331.032 165.276ZM292.996 164.539C292.56 164.452 292.43 163.886 292.734 163.581C293.126 163.233 293.823 162.885 294.693 162.885C296.478 162.885 298.393 164.06 296.391 164.583C295.216 164.931 293.823 164.713 292.996 164.539ZM301.963 164.844C301.527 164.757 301.397 164.191 301.745 163.886C302.137 163.538 302.833 163.19 303.747 163.19C305.532 163.19 307.447 164.409 305.445 164.887C304.183 165.236 302.833 165.018 301.963 164.844Z"
     fill="#482D1F"
     id="path30" />
  <path
     d="M309.145 184.634L314.088 182.066L309.45 189.22L309.145 184.634Z"
     fill="#482D1F"
     id="path31" />
  <path
     d="M296.391 167.586C296.347 168.326 296.217 169.545 295.781 169.98C295.041 170.633 294.084 168.457 294.65 167.107C294.867 166.541 295.172 166.454 295.52 166.498C296.043 166.585 296.391 167.064 296.391 167.586ZM304.183 167.499C304.226 168.239 304.226 169.458 303.791 169.98C303.138 170.72 301.919 168.631 302.354 167.238C302.528 166.672 302.833 166.541 303.181 166.541C303.704 166.541 304.139 166.977 304.183 167.499Z"
     fill="#482D1F"
     id="path32" />
  <path
     d="M300.613 176.466C300.918 176.379 301.658 176.161 301.788 175.683C301.788 175.596 301.832 175.465 301.788 175.378C301.614 175.073 301.092 175.247 300.308 175.291C298.915 175.378 297.784 175.247 297.784 175.247C297.784 175.247 298.088 176.118 298.306 176.379C298.785 177.032 300.178 176.597 300.613 176.466Z"
     fill="#482D1F"
     id="path33" />
  <path
     d="M297.004 172.27C296.922 172.761 297.303 173.243 297.799 173.326C297.908 173.336 297.908 173.336 297.978 173.342C298.713 173.398 299.172 173.419 299.96 173.419C300.201 173.419 300.396 173.224 300.396 172.984C300.396 172.743 300.201 172.549 299.96 172.549C299.197 172.549 298.759 172.528 298.045 172.474L297.904 172.463C297.903 172.461 297.863 172.411 297.865 172.402L298.52 167.734L298.524 167.673V165.105C298.524 164.865 298.329 164.67 298.088 164.67C297.848 164.67 297.653 164.865 297.653 165.105V167.643L297.004 172.27Z"
     fill="#482D1F"
     id="path34" />
  <path
     d="M324.777 163.679C324.976 164.954 324.747 166.343 324.168 167.459C323.464 168.866 322.474 169.634 321.194 170.224C320.976 170.325 320.881 170.584 320.981 170.802C321.082 171.02 321.341 171.116 321.559 171.015C322.122 170.755 322.568 170.505 323.085 170.104C323.847 169.514 324.484 168.774 324.944 167.854C325.605 166.579 325.865 165.003 325.637 163.544C325.6 163.307 325.378 163.144 325.14 163.181C324.903 163.218 324.74 163.441 324.777 163.679Z"
     fill="#482D1F"
     id="path35" />
  <path
     d="M285.017 251.881C285.865 235.914 286.241 228.811 286.709 219.908C286.755 219.039 288.059 219.108 288.013 219.977L286.321 251.95C286.275 252.819 284.971 252.75 285.017 251.881ZM345.686 250.526C345.94 251.351 344.709 251.741 344.442 250.92L338.391 232.377C338.126 231.565 339.327 231.147 339.624 231.947C340.472 234.235 344.439 246.471 345.686 250.526Z"
     fill="#482D1F"
     id="path36" />
  <path
     d="M22.2859 442.2C21.1542 442.2 20.2836 441.446 20.3271 440.542V439.94C20.3271 439.036 21.2412 438.282 22.2859 438.282H66.9036C67.9918 438.282 68.8624 439.036 68.8624 439.94V440.542C68.8624 441.446 67.9483 442.2 66.9036 442.2H22.2859ZM80.4412 438.282H149.653C150.735 438.282 151.612 439.159 151.612 440.241C151.612 441.323 150.735 442.2 149.653 442.2H80.4412C79.3594 442.2 78.4824 441.323 78.4824 440.241C78.4824 439.159 79.3594 438.282 80.4412 438.282Z"
     fill="#DE3190"
     id="path37" />
  <path
     d="M77.9094 335.79L74.1905 337.761L74.1362 339.476C74.0313 343.877 73.8639 347.745 73.6367 351.156C73.4707 353.838 71.1977 384.24 70.3747 395.396C70.2032 397.925 68.4086 400.128 65.8664 400.904C62.0327 402.106 59.5747 402.802 49.5378 403.491C48.8866 403.551 48.2327 403.535 47.6223 403.518C37.8505 403.089 32.9293 401.881 31.8254 401.46C30.413 400.935 29.6639 400.693 28.9013 400.069C26.2124 397.943 26.2615 394.423 26.1718 393.126C25.6396 384.57 24.1766 361.023 23.3244 341.433C22.5432 341.155 21.808 340.757 21.1735 340.19C18.5666 337.841 14.9521 335.129 12.9737 330.511C7.37555 317.443 6.7778 302.855 11.1805 286.749C14.6273 279.295 16.9446 275.25 18.1321 274.612L109.302 280.839C110.142 280.821 110.983 280.802 111.826 280.784C122.839 280.586 131.762 289.181 131.501 299.678C131.501 299.757 131.501 299.796 131.501 299.876C130.805 332.434 122.665 378.816 122.099 394.501C122.055 395.095 121.881 396.402 120.967 397.789C118.138 402.027 111.521 401.076 96.0683 401.433C82.9224 401.749 77.6118 402.7 74.913 399.214C73.433 397.313 73.4766 395.135 73.5201 394.144C74.5783 374.604 76.111 354.883 77.9094 335.79Z"
     fill="#10B981"
     id="path38"
     style="fill:#ff7f2a" />
  <path
     opacity="0.176986"
     d="M78.0656 335.774L74.3506 337.744L75.345 306.365C75.3274 304.645 75.1757 294.249 66.2837 287.938C59.8061 283.381 52.1387 283.338 47.0421 283.322C44.1573 283.308 33.8666 283.124 29.8043 287.938C22.8243 296.211 22.2114 311.724 22.3446 313.919C22.5878 318.308 22.8743 325.143 23.1567 333.087C23.2513 335.747 23.364 338.554 23.4901 341.447C22.6945 341.168 21.9454 340.766 21.3004 340.189C18.6935 337.84 15.0791 335.129 13.1007 330.511C7.5025 317.442 6.90475 302.855 11.3074 286.748C14.7543 279.295 17.0715 275.25 18.2591 274.612L108.606 280.783C106.093 280.837 103.588 280.892 101.062 280.947C91.2678 281.184 83.1278 288.274 82.0831 297.543C80.6635 309.815 79.3017 322.646 78.0656 335.774Z"
     fill="#444444"
     id="path39" />
  <path
     d="M67.7714 438.475C67.4969 438.35 67.1829 438.279 66.8483 438.279H22.7648L33.0244 411.555L63.5594 413.186L67.7714 438.475ZM79.6398 438.426L79.4098 410.423L112.335 410.902L120.083 416.735C121.868 418.563 123.783 420.174 125.873 421.61C130.922 425.049 133.577 425.006 141.282 428.836C143.415 429.837 145.374 430.969 147.333 432.232C148.29 433.146 149.944 434.887 150.467 436.976C150.554 437.281 150.554 437.629 150.597 437.977C150.597 438.219 150.589 438.401 150.572 438.538C150.285 438.373 149.953 438.279 149.598 438.279H80.386C80.1218 438.279 79.8698 438.331 79.6398 438.426Z"
     fill="#474961"
     id="path40" />
  <path
     d="M80.3875 232.645C79.659 247.47 78.0147 267.858 76.525 271.817C74.2674 277.815 30.9591 273.545 25.1924 272.233C21.5873 271.417 18.2255 261.7 17.6035 258.446C17.0758 255.827 14.1471 252.901 20.535 229.621C17.7375 228.895 15.4454 228.284 14.2018 227.966C9.16258 226.678 11.3806 220.792 12.2738 216.747C14.8317 205.203 18.0392 200.977 19.1355 199.704C20.3941 198.25 21.6122 197.204 22.4242 196.568C27.9054 192.296 33.7114 191.66 36.6753 191.614C36.7565 191.569 36.8377 191.569 36.9189 191.569L51.3324 191.387C51.2837 191.776 51.2319 192.192 51.1771 192.632C51.7791 192.654 52.3708 192.681 52.9467 192.712C52.9665 192.273 52.9852 191.858 53.0025 191.471L67.1668 194.145C67.2468 194.159 67.3268 194.173 67.3992 194.23C70.3105 194.788 75.9225 196.396 80.6099 201.377C81.3037 202.118 82.3294 203.316 83.327 204.906C84.195 206.297 86.6508 210.841 87.2499 222.173C87.4568 226.144 88.6761 232.085 83.4993 232.425C82.7753 232.472 81.7038 232.55 80.3875 232.645Z"
     fill="#DE3190"
     id="path41"
     style="fill:#5f5fd3" />
  <path
     opacity="0.176986"
     d="M80.4448 232.641C80.9267 222.707 80.4053 215.51 79.9648 212.647C79.652 210.599 79.1422 208.704 79.1422 208.704C78.902 207.359 78.3922 205.464 77.1499 203.464C73.2931 197.059 65.5761 195.025 60.3762 193.593C59.2377 193.288 56.3706 192.976 52.9429 192.795C52.9641 192.325 52.984 191.882 53.0025 191.47L67.1668 194.145C67.2468 194.159 67.3267 194.173 67.3992 194.23C70.3105 194.788 75.9224 196.396 80.6098 201.377C81.3037 202.118 82.3294 203.316 83.327 204.906C84.195 206.297 86.6508 210.841 87.2499 222.173C87.4568 226.144 88.6761 232.085 83.4993 232.425C82.7859 232.472 81.7349 232.548 80.4448 232.641V232.641Z"
     fill="#444444"
     id="path42" />
  <path
     d="M101.35 218.231C104.638 215.037 110.579 210.189 119.173 203.688C121.81 203.995 121.618 206.086 118.598 209.958L101.35 218.231ZM44.2578 234.694C44.114 235.025 43.7293 235.176 43.3986 235.033C43.0679 234.889 42.9164 234.504 43.0602 234.174C43.9028 232.235 44.2417 231.152 44.8945 228.324C44.9756 227.972 45.3262 227.753 45.6776 227.834C46.0289 227.915 46.248 228.266 46.167 228.617C45.4974 231.519 45.1353 232.676 44.2578 234.694Z"
     fill="#482D1F"
     id="path43" />
  <path
     d="M35.0507 402.219C37.6365 402.705 41.7913 403.256 47.7492 403.518C48.3596 403.535 49.0135 403.551 49.6647 403.49C57.3137 402.966 60.5611 402.437 63.3701 401.682L63.5594 413.186L33.0244 411.555L35.0507 402.219ZM79.3398 401.512C82.7074 402.086 87.8862 401.633 96.1952 401.432C100.655 401.329 104.379 401.335 107.489 401.294L112.318 410.902L79.4098 410.423L79.3398 401.512ZM77.5055 264.752L80.3606 232.64C80.9802 232.592 81.4553 232.555 81.7859 232.531C82.4522 232.481 83.1382 232.455 83.9297 232.297C84.9476 232.094 85.6349 231.84 85.9914 231.537L87.2571 240.17L99.5903 220.013C100.197 219.021 101.058 218.21 102.084 217.662L123.97 205.975C127.324 202.828 129.737 201.007 131.209 200.511C132.682 200.014 134.217 200.504 135.815 201.981L116.736 221.974C114.34 228.908 111.702 235.828 108.822 242.736C105.944 249.639 101.469 259.762 95.3975 273.105C103.688 277.552 108.68 281.074 108.68 281.074C108.68 281.074 46.9631 280.029 22.4819 278.529C0.701802 277.195 11.2041 236.752 13.7867 227.844C13.9193 227.888 14.0576 227.929 14.2018 227.966C18.7103 229.118 37.0007 234.199 43.187 234.546L37.2483 255.284C51.8383 256.059 65.8314 260.095 77.5055 264.752ZM60.8546 192.542C61.9348 192.84 63.0575 193.197 64.2227 193.611C63.2538 195.979 61.9059 197.367 60.1791 197.775C57.589 198.385 51.3899 198.385 47.3141 196.634C44.597 195.467 42.5514 193.764 41.1776 191.527C42.7558 191.498 44.238 191.473 45.6244 191.453V175.301C44.529 174.017 43.57 172.793 43.0058 171.656C42.0545 169.773 42.1878 165.022 42.6014 162.758C42.7386 161.828 49.4375 155.228 53.3156 161.703L52.9515 150.548C52.9342 149.851 53.4486 149.238 54.1896 149.217C55.7111 149.127 57.225 148.951 58.8425 148.46C59.0159 148.445 59.1856 148.386 59.3591 148.371C60.822 148.112 69.0704 146.997 73.8588 152.783C74.2946 153.269 74.6908 153.803 75.055 154.47C75.8459 156.017 76.3012 157.725 76.3228 159.471L76.391 167.243C76.3726 168.031 76.3108 168.823 76.2018 169.576C75.4223 175.149 73.775 179.794 71.8534 182.803C70.4348 185.068 68.8065 186.434 67.2926 186.61C66.8627 186.691 64.5173 186.853 61.7133 186.268C61.5304 186.224 61.5789 186.262 60.4357 185.879L60.8546 192.542Z"
     fill="#DB9E75"
     id="path44" />
  <path
     d="M37.6776 255.472C38.0366 255.438 38.3551 255.701 38.389 256.06C38.4228 256.419 38.1593 256.738 37.8002 256.772C37.7154 256.78 37.5495 256.798 37.3141 256.83C36.918 256.883 36.4757 256.953 35.9989 257.042C34.6381 257.295 33.2782 257.649 32.0149 258.117C31.2691 258.393 30.5794 258.702 29.9571 259.044C29.6411 259.218 29.2441 259.103 29.0703 258.787C28.8965 258.471 29.0118 258.074 29.3278 257.9C30.0098 257.525 30.7578 257.19 31.5612 256.893C32.9013 256.396 34.3309 256.024 35.7596 255.758C36.2592 255.665 36.7234 255.591 37.1409 255.536C37.2879 255.516 37.4187 255.5 37.5321 255.487C37.6015 255.479 37.6505 255.474 37.6776 255.472ZM86.5824 239.781C86.7805 239.479 87.1853 239.396 87.4867 239.594C87.7881 239.792 87.8718 240.197 87.6738 240.498C87.6558 240.525 87.6558 240.525 87.57 240.656C87.4853 240.785 87.387 240.935 87.2764 241.104C86.9603 241.587 86.6084 242.125 86.2299 242.706C85.1485 244.364 84.0705 246.028 83.0692 247.588C82.9661 247.748 82.9661 247.748 82.8631 247.909C81.3386 250.287 81.6256 249.617 80.9011 250.833C80.7165 251.143 80.3158 251.245 80.006 251.06C79.6962 250.876 79.5946 250.475 79.7791 250.165C80.513 248.933 80.2319 249.594 81.7636 247.204C81.8669 247.043 81.8669 247.043 81.9703 246.882C82.9734 245.32 84.053 243.653 85.136 241.992C85.515 241.411 85.8674 240.872 86.184 240.388C86.2948 240.219 86.3932 240.069 86.4781 239.94C86.5642 239.809 86.5642 239.809 86.5824 239.781Z"
     fill="#482D1F"
     id="path45" />
  <path
     d="M60.4554 185.888L54.006 183.577L60.7488 190.865L60.4554 185.888Z"
     fill="#482D1F"
     id="path46" />
  <path
     d="M53.8345 165.703L53.7264 164.9C53.7264 164.9 53.4164 163.354 52.1957 161.888C52.1014 161.809 51.2808 160.919 50.1116 160.541C48.0052 159.939 45.3963 161.085 44.0851 163.078C42.6909 165.123 42.9147 167.681 43.9094 169.561C44.904 171.44 46.5881 172.21 47.1746 172.421L49.7718 172.998C47.8921 176.536 46.2258 179.699 45.8354 179.699C45.1194 179.699 42.3216 176.385 40.4858 173.88C39.5914 172.647 36.5392 169.725 35.6259 164.78C35.4326 163.626 34.874 160.53 35.7403 157.246C30.2196 153.824 26.3244 147.933 25.7148 140.965C24.6881 129.23 33.369 118.885 45.1041 117.858C56.8392 116.831 67.1846 125.512 68.2113 137.247C68.5498 141.115 67.8333 144.833 66.3004 148.115C69.3514 148.815 72.6013 150.374 74.3955 153.39C73.5284 154.008 72.4814 154.52 71.2862 154.843C68.036 155.652 65.1605 155.248 63.4162 154.789C60.3937 158.199 57.324 161.57 54.3015 164.981C54.1522 165.203 53.9962 165.445 53.8345 165.703Z"
     fill="#482D1F"
     id="path47" />
  <path
     d="M74.3038 168.797C74.3883 168.265 74.8746 167.829 75.4025 167.87C75.7532 167.883 76.0362 168.121 76.2194 168.716C76.4822 170.223 75.0013 172.275 74.4447 171.406C74.0484 170.873 74.1986 169.592 74.3038 168.797Z"
     fill="#482D1F"
     id="path48" />
  <path
     d="M64.7414 168.437C64.826 167.905 65.3122 167.47 65.8401 167.511C66.1908 167.524 66.4738 167.761 66.657 168.357C66.9199 169.863 65.439 171.916 64.8823 171.047C64.4861 170.513 64.6362 169.233 64.7414 168.437Z"
     fill="#482D1F"
     id="path49" />
  <path
     d="M71.0756 169.417L71.4984 173.749C71.4998 173.766 71.4395 173.837 71.4188 173.839C71.1817 173.86 70.9378 173.866 70.5562 173.862C70.4821 173.861 70.4046 173.86 70.293 173.859C70.1523 173.857 70.0753 173.856 70.0015 173.855C69.7489 173.852 69.5398 173.85 69.3165 173.85L69.315 173.85C69.0761 173.85 68.8813 174.045 68.8815 174.286C68.8816 174.526 69.0766 174.721 69.317 174.721L69.3186 174.721C69.5358 174.72 69.7412 174.722 69.9901 174.725C70.0633 174.726 70.1398 174.727 70.2808 174.729C70.3937 174.731 70.4724 174.732 70.5482 174.733C70.9554 174.736 71.2239 174.73 71.4947 174.707C71.9944 174.663 72.409 174.169 72.3652 173.669L71.9421 169.332C71.9187 169.093 71.7059 168.918 71.4666 168.941C71.2273 168.964 71.0523 169.177 71.0756 169.417Z"
     fill="#482D1F"
     id="path50" />
  <path
     d="M68.6999 177.223C68.3849 177.12 67.6174 176.837 67.5361 176.407C67.5285 176.321 67.4738 176.194 67.5567 176.143C67.7545 175.908 68.2939 176.079 69.0934 176.227C70.5114 176.453 71.6464 176.441 71.6464 176.441C71.6464 176.441 71.2735 177.173 71.0285 177.369C70.5536 177.935 69.1525 177.402 68.6999 177.223Z"
     fill="#482D1F"
     id="path51" />
  <path
     d="M57.9727 167.383L55.3632 166.826C55.0105 166.75 54.7857 166.403 54.8609 166.051C54.9362 165.698 55.2831 165.473 55.6358 165.548L58.4416 166.147C59.3762 164.308 61.2101 162.978 63.4167 162.785C66.8174 162.488 69.8155 165.003 70.113 168.404C70.1202 168.485 70.1257 168.566 70.1296 168.647L71.454 168.693C71.8026 165.859 74.0916 163.555 77.0508 163.297C80.4515 162.999 83.4496 165.515 83.7471 168.915C84.0447 172.316 81.529 175.314 78.1282 175.612C74.7296 175.909 71.7331 173.397 71.4324 169.999L70.0553 169.951C69.6077 172.671 67.3666 174.849 64.4941 175.101C61.0933 175.398 58.0953 172.882 57.7977 169.482C57.7343 168.756 57.7988 168.049 57.9727 167.383ZM59.3724 167.277C59.1361 167.925 59.0345 168.635 59.0986 169.368C59.3333 172.05 61.698 174.034 64.3803 173.8C67.0626 173.565 69.0468 171.2 68.8121 168.518C68.5775 165.836 66.2128 163.851 63.5305 164.086C61.6888 164.247 60.1762 165.413 59.485 166.995C59.483 167.009 59.4805 167.023 59.4776 167.036C59.4585 167.126 59.422 167.207 59.3724 167.277ZM72.7143 169.508C72.7157 169.631 72.7219 169.755 72.7327 169.879C72.9674 172.561 75.3321 174.546 78.0144 174.311C80.6967 174.076 82.6809 171.712 82.4462 169.029C82.2116 166.347 79.8469 164.363 77.1646 164.597C74.6952 164.814 72.8175 166.835 72.718 169.247C72.7268 169.294 72.7306 169.342 72.7289 169.391C72.7275 169.431 72.7225 169.47 72.7143 169.508Z"
     fill="#482D1F"
     id="path52" />
  <path
     opacity="0.2"
     d="M80.3606 232.641L77.5034 264.775C81.5532 266.438 84.5816 267.742 86.5887 268.687C88.5958 269.632 91.5285 271.113 95.387 273.129C101.464 259.774 105.942 249.643 108.822 242.736C111.702 235.828 114.34 228.908 116.736 221.974L135.815 201.981C134.217 200.504 132.682 200.013 131.209 200.51C129.737 201.006 127.324 202.828 123.97 205.975L102.084 217.662C101.058 218.21 100.197 219.022 99.5902 220.014L87.257 240.17L85.9913 231.537C85.7071 231.841 85.056 232.094 84.038 232.297C83.2465 232.455 82.5606 232.481 81.8942 232.531C81.5636 232.556 81.0524 232.592 80.3606 232.641Z"
     fill="#8C2A00"
     id="path53" />
  <path
     d="M362.294 275.482H13.6236C11.9408 275.482 10.5765 276.846 10.5765 278.529C10.5765 280.212 11.9408 281.576 13.6236 281.576H362.294C363.977 281.576 365.341 280.212 365.341 278.529C365.341 276.846 363.977 275.482 362.294 275.482Z"
     fill="#D8DEED"
     id="path54" />
  <path
     d="m 214.72724,252.67708 -10.35817,-13.48362 c -0.51499,-0.67081 -1.25517,-1.05555 -2.03086,-1.05555 h -9.47381 v -0.36828 c 0,-3.06058 -2.15162,-5.55063 -4.7955,-5.55063 h -31.78984 c -2.64459,8.2e-4 -4.79621,2.49087 -4.79621,5.55145 v 28.85309 c 0,1.82418 1.28216,3.30801 2.85769,3.30801 h 7.36907 c 0.58745,2.93728 2.86196,5.13549 5.57617,5.13549 2.7142,0 4.98871,-2.19821 5.57616,-5.13549 h 17.8956 2.10757 7.60134 c 0.58747,2.93728 2.86197,5.13549 5.57618,5.13549 2.71421,0 4.98872,-2.19821 5.57617,-5.13549 h 1.079 c 1.49811,0 2.71705,-1.40985 2.71705,-3.14442 v -12.02034 c -0.002,-0.77028 -0.24506,-1.51261 -0.68761,-2.08971 z m -2.71421,0.13811 h -12.27254 c -0.23867,0 -0.43259,-0.22524 -0.43259,-0.50146 v -6.39983 c 0,-0.27622 0.19392,-0.50064 0.43259,-0.50064 h 6.58627 z m -55.73397,-18.15628 h 31.78984 c 1.48177,0 2.68792,1.39587 2.68792,3.11154 v 0.36829 18.35029 h -37.16639 v -18.71858 c 0,-1.71567 1.20615,-3.11154 2.68863,-3.11154 z m 11.00601,37.96823 c -1.99606,0 -3.62061,-1.87926 -3.62061,-4.19011 0,-2.31085 1.62455,-4.1901 3.62061,-4.1901 1.99605,0 3.6206,1.87925 3.6206,4.1901 0,2.31085 -1.62384,4.19011 -3.6206,4.19011 z m 5.66282,-5.13549 c -0.39849,-3.20773 -2.7824,-5.68298 -5.66282,-5.68298 -2.88043,0 -5.26433,2.47525 -5.66283,5.68298 h -7.2817 c -0.41341,0 -0.75011,-0.38966 -0.75011,-0.86893 v -7.69542 h 37.16639 v 8.56352 h -17.80893 z m 33.09402,5.13549 c -1.99676,0 -3.6206,-1.87926 -3.6206,-4.19011 0,-2.31085 1.62384,-4.1901 3.6206,-4.1901 1.99678,0 3.62061,1.87925 3.62061,4.1901 0,2.31085 -1.62454,4.19011 -3.62061,4.19011 z m 6.65448,-5.13549 h -0.99236 c -0.3985,-3.20773 -2.7824,-5.68298 -5.66282,-5.68298 -2.88044,0 -5.26433,2.47525 -5.66284,5.68298 h -7.51397 v -26.91464 h 9.47381 c 0.17333,0 0.33954,0.0864 0.45532,0.23676 l 1.65865,2.15957 h -4.7124 c -1.40079,0 -2.54017,1.31861 -2.54017,2.93974 v 6.39982 c 0,1.62113 1.13938,2.94056 2.54017,2.94056 h 13.56536 v 11.53284 c 7.6e-4,0.38967 -0.27205,0.70535 -0.60875,0.70535 z"
     style="mix-blend-mode:normal;fill:#ff8080;fill-opacity:1;fill-rule:nonzero;stroke:none;stroke-width:0.764;stroke-linecap:butt;stroke-linejoin:miter;stroke-miterlimit:10;stroke-dasharray:none;stroke-opacity:1"
     stroke-linecap="round"
     id="path1-0" />
</svg>
