<?xml version="1.0" encoding="UTF-8" standalone="no"?>
<svg
   width="531"
   height="419"
   viewBox="0 0 503.65024 418.31726"
   fill="none"
   version="1.1"
   id="svg43"
   sodipodi:docname="image-1.svg"
   inkscape:version="1.3.2 (091e20e, 2023-11-25)"
   xmlns:inkscape="http://www.inkscape.org/namespaces/inkscape"
   xmlns:sodipodi="http://sodipodi.sourceforge.net/DTD/sodipodi-0.dtd"
   xmlns="http://www.w3.org/2000/svg"
   xmlns:svg="http://www.w3.org/2000/svg">
  <defs
     id="defs43" />
  <sodipodi:namedview
     id="namedview43"
     pagecolor="#505050"
     bordercolor="#eeeeee"
     borderopacity="1"
     inkscape:showpageshadow="0"
     inkscape:pageopacity="0"
     inkscape:pagecheckerboard="0"
     inkscape:deskcolor="#505050"
     inkscape:zoom="1.2003863"
     inkscape:cx="261.58246"
     inkscape:cy="209.09935"
     inkscape:window-width="1392"
     inkscape:window-height="1051"
     inkscape:window-x="0"
     inkscape:window-y="251"
     inkscape:window-maximized="0"
     inkscape:current-layer="svg43" />
  <path
     d="M 344.53629,21.659694 H 145.1356 c -4.13998,0 -7.49639,3.478593 -7.49639,7.76966 V 340.60398 c 0,4.29095 3.35641,7.76976 7.49639,7.76976 h 199.40069 c 4.13997,0 7.49638,-3.47881 7.49638,-7.76976 V 29.429354 c 0,-4.291067 -3.35641,-7.76966 -7.49638,-7.76966 z"
     fill="#f2f6fb"
     id="path1"
     style="stroke-width:0.876619" />
  <path
     d="m 228.34407,30.604868 h 33.3583 c 0.62083,0 1.12455,0.521822 1.12455,1.165464 v 4.273281 c 0,0.643732 -0.50372,1.165465 -1.12455,1.165465 h -33.3583 c -0.62082,0 -1.12454,-0.521733 -1.12454,-1.165465 v -4.273281 c 0,-0.643642 0.50372,-1.165464 1.12454,-1.165464 z m 95.20303,0 h 17.99098 c 0.62082,0 1.12454,0.521822 1.12454,1.165464 v 4.273281 c 0,0.643732 -0.50372,1.165465 -1.12454,1.165465 H 323.5471 c -0.62168,0 -1.12454,-0.521733 -1.12454,-1.165465 v -4.273281 c 0,-0.643642 0.50286,-1.165464 1.12454,-1.165464 z m -24.73823,0 h 17.61641 c 0.62082,0 1.12454,0.521822 1.12454,1.165464 v 4.273281 c 0,0.643732 -0.50372,1.165465 -1.12454,1.165465 h -17.61641 c -0.62083,0 -1.12455,-0.521733 -1.12455,-1.165465 v -4.273281 c 0,-0.643642 0.50372,-1.165464 1.12455,-1.165464 z M 203.98126,134.05821 h 82.45935 c 0.41331,0 0.74912,0.34806 0.74912,0.77734 v 6.61313 c 0,0.42928 -0.33581,0.77734 -0.74912,0.77734 h -82.45935 c -0.41417,0 -0.74999,-0.34806 -0.74999,-0.77734 v -6.61313 c 0,-0.42928 0.33582,-0.77734 0.74999,-0.77734 z m -14.99277,-13.22269 h 111.6949 c 0.41417,0 0.74912,0.34716 0.74912,0.77644 v 6.61402 c 0,0.42838 -0.33495,0.77644 -0.74912,0.77644 h -111.6949 c -0.41417,0 -0.74912,-0.34806 -0.74912,-0.77644 v -6.61402 c 0,-0.42928 0.33495,-0.77644 0.74912,-0.77644 z m -38.23104,43.00679 c 0,-0.85676 0.67507,-1.55199 1.49997,-1.55199 h 185.90616 c 0.82834,0 1.49997,0.69523 1.49997,1.55199 v 126.01903 c 0,0.85765 -0.67421,1.55199 -1.49997,1.55199 H 152.25742 c -0.82834,0 -1.49997,-0.69523 -1.49997,-1.55199 z m 1.17277,137.52463 h 85.73654 c 0.66818,0 0.91014,0.0723 1.15468,0.20794 0.24454,0.13566 0.43656,0.33379 0.56658,0.58724 0.13088,0.25346 0.20063,0.50424 0.20063,1.19769 v 26.35169 c 0,0.69254 -0.0697,0.94333 -0.20063,1.19679 -0.13002,0.25345 -0.32204,0.45247 -0.56658,0.58723 -0.24454,0.13566 -0.4865,0.20795 -1.15468,0.20795 h -85.73654 c -0.66905,0 -0.911,-0.0723 -1.15555,-0.20795 -0.24368,-0.13476 -0.43569,-0.33378 -0.56657,-0.58723 -0.13088,-0.25346 -0.19977,-0.50425 -0.19977,-1.19679 v -26.35169 c 0,-0.69345 0.0689,-0.94423 0.19977,-1.19769 0.13088,-0.25345 0.32289,-0.45158 0.56657,-0.58724 0.24455,-0.13565 0.4865,-0.20794 1.15555,-0.20794 z m 100.0749,0 h 85.73655 c 0.66818,0 0.911,0.0723 1.15554,0.20794 0.24368,0.13566 0.43569,0.33379 0.56657,0.58724 0.13089,0.25346 0.19977,0.50424 0.19977,1.19769 v 26.35169 c 0,0.69254 -0.0689,0.94333 -0.19977,1.19679 -0.13088,0.25345 -0.32289,0.45247 -0.56657,0.58723 -0.24454,0.13566 -0.48736,0.20795 -1.15554,0.20795 h -85.73655 c -0.66818,0 -0.91014,-0.0723 -1.15468,-0.20795 -0.24454,-0.13476 -0.43656,-0.33378 -0.56658,-0.58723 -0.13088,-0.25346 -0.20062,-0.50425 -0.20062,-1.19679 v -26.35169 c 0,-0.69345 0.0697,-0.94423 0.20062,-1.19769 0.13002,-0.25345 0.32204,-0.45158 0.56658,-0.58724 0.24454,-0.13565 0.4865,-0.20794 1.15468,-0.20794 z"
     fill="#e1e5f0"
     id="path5"
     style="stroke-width:0.876619" />
  <path
     d="m 276.67706,205.83616 c 5.47203,0 9.90907,-4.6167 9.90907,-10.31239 0,-5.69568 -4.43704,-10.31238 -9.90907,-10.31238 -5.4729,0 -9.90908,4.6167 -9.90908,10.31238 0,5.69569 4.43618,10.31239 9.90908,10.31239 z"
     fill="#f2f6fb"
     id="path6"
     style="stroke-width:0.876619" />
  <path
     d="m 245.02365,111.07289 v -1.55432 c 2.08463,0 4.13309,-0.2821 6.1075,-0.83329 l 0.39006,1.5005 c -2.10185,0.58653 -4.28119,0.88711 -6.49756,0.88711 z m 12.5465,-3.50729 -0.75601,-1.34208 c 1.78067,-1.07729 3.4184,-2.39483 4.86843,-3.91514 l 1.06599,1.09255 c -1.54216,1.61705 -3.28408,3.01857 -5.17841,4.16467 z m 9.13756,-9.580744 -1.30278,-0.76779 c 1.01691,-1.85525 1.79445,-3.84329 2.30936,-5.9188 l 1.45175,0.38662 c -0.54764,2.20937 -1.37512,4.32549 -2.45833,6.29997 z m 3.23844,-13.07884 -1.4991,0.0195 c -0.0258,-2.1594 -0.32462,-4.27855 -0.88172,-6.3188 l 1.44227,-0.42348 c 0.59327,2.17136 0.911,4.42625 0.93855,6.72273 z m -3.5467,-12.960938 -1.2847,0.800716 c -1.06255,-1.831597 -2.355,-3.511654 -3.84032,-4.994924 l 1.04016,-1.119057 c 1.58004,1.577692 2.95429,3.364666 4.08486,5.313265 z m -9.35971,-9.345581 -0.72329,1.360824 c -1.80306,-1.0299 -3.73011,-1.809821 -5.73983,-2.316025 l 0.3539,-1.509954 c 2.13887,0.538868 4.19078,1.369035 6.10922,2.465155 z m -12.65844,-3.186799 0.0379,1.553417 c -2.08204,0.05453 -4.12275,0.391344 -6.08511,0.996254 l -0.42794,-1.489517 c 2.08893,-0.643732 4.26052,-1.002144 6.47516,-1.060154 z m -12.45867,3.843472 0.78959,1.321377 c -1.75311,1.124768 -3.35813,2.485771 -4.7694,4.044275 l -1.09355,-1.063635 c 1.50169,-1.657745 3.20831,-3.105406 5.07336,-4.302017 z m -8.8956,9.821263 1.32259,0.732531 c -0.97042,1.88104 -1.69801,3.888902 -2.1604,5.978772 l -1.46122,-0.34726 c 0.49253,-2.22463 1.26662,-4.361986 2.29903,-6.364043 z m -2.91038,13.160403 1.49824,-0.0592 c 0.0792,2.15628 0.43053,4.26748 1.04016,6.29417 l -1.43194,0.46238 c -0.64838,-2.15707 -1.02208,-4.40393 -1.10646,-6.69738 z m 3.86874,12.8609 1.26489,-0.83481 c 1.10733,1.802504 2.44111,3.447754 3.9626,4.891044 l -1.01175,1.14628 c -1.61879,-1.53504 -3.03695,-3.28497 -4.21574,-5.202514 z m 9.58876,9.092834 0.6897,-1.37983 c 1.82631,0.98081 3.77231,1.70853 5.79579,2.16083 l -0.316,1.51897 c -2.15351,-0.4814 -4.22522,-1.25606 -6.16949,-2.29997 z m 27.14059,160.09364 -13.00458,0.0616 0.0362,-0.0616 h -56.8015 c -3.51829,0 -4.85724,-2.50693 -2.99132,-5.59841 l 38.81651,-64.31072 c 1.86592,-3.09238 4.95454,-3.13611 6.9014,-0.0919 l 28.8429,45.48427 10.20356,-16.9398 c 1.64548,-2.73093 4.37418,-2.77377 6.0963,-0.0928 l 23.62402,36.75868 c 1.72126,2.68006 0.61652,4.61759 -2.49449,4.51763 l -17.27457,0.17046 -5.45481,0.0259 0.0456,0.0768 c 0,0 -2.8501,0 -6.37098,0 z"
     fill="#10b981"
     id="path7"
     style="stroke-width:0.876619" />
  <path
     opacity="0.176986"
     d="m 277.10586,268.37356 c 0,0 -2.8501,0 -6.37097,0 h -79.9442 c -3.51829,0 -4.85724,-2.50692 -2.99132,-5.59841 l 38.81569,-64.31072 c 1.86678,-3.09238 4.9554,-3.13611 6.90139,-0.0919 l 33.56668,52.93274"
     fill="#444444"
     id="path8"
     style="stroke-width:0.876619" />
  <path
     d="m 471.97307,394.99143 h -38.41874 c -0.89895,0 -1.68596,-0.67202 -1.68596,-1.47881 v -0.53815 c 0,-0.80679 0.74912,-1.47881 1.68596,-1.47881 h 38.41874 c 0.89981,0 1.68682,0.67202 1.68682,1.47881 v 0.53815 c 0,0.80679 -0.74998,1.47881 -1.68682,1.47881 z m -88.26892,-3.49577 c 0.93167,0 1.68682,0.78269 1.68682,1.74744 0,0.96564 -0.75515,1.74833 -1.68682,1.74833 h -61.09474 c -0.93081,0 -1.68596,-0.78269 -1.68596,-1.74833 0,-0.96475 0.75515,-1.74744 1.68596,-1.74744 z"
     fill="#de3190"
     id="path9"
     style="stroke-width:0.876619" />
  <path
     d="m 472.17801,391.50726 c -0.0672,-0.008 -0.13605,-0.0116 -0.20494,-0.0116 h -38.28958 l 3.03006,-19.81798 26.83664,-3.76797 z m -88.24998,0.004 c -0.0732,-0.0107 -0.1481,-0.0152 -0.22388,-0.0152 h -60.82867 c -0.0405,-0.2133 -0.0611,-0.48104 -0.0551,-0.8282 0.0422,-0.27131 0.0474,-0.58189 0.12743,-0.89157 0.48134,-1.85632 1.06427,-3.08881 2.76917,-4.18475 1.70576,-1.09594 3.44682,-2.07497 5.26021,-2.9353 6.69043,-3.25927 8.97655,-3.21822 13.37484,-6.20796 1.82114,-1.24944 3.49504,-2.69523 5.05786,-4.26061 1.04188,-1.04239 3.17042,-2.73717 6.3839,-5.08345 l 28.89715,0.67023 z"
     fill="#474961"
     id="path10"
     style="stroke-width:0.876619" />
  <path
     d="m 424.59931,153.43979 c 2.85269,5.75637 10.57467,23.61808 17.46745,59.97871 0.56744,3.01652 1.11249,5.95361 1.63515,8.80502 l 0.0525,-0.066 c 9.44668,36.89254 16.00365,62.71946 19.67176,77.48166 3.76713,15.16112 -1.45691,14.92462 1.40008,27.68056 1.64635,7.35388 7.16488,13.26732 7.11666,20.92464 -0.007,1.21017 0.0207,3.62874 0.0852,7.2557 0.11366,6.47927 -4.45426,12.02769 -10.64614,12.92908 l -25.00688,3.64303 c -6.76449,0.98527 -13.01922,-3.90006 -13.96983,-10.91123 -0.009,-0.0643 -0.0172,-0.12941 -0.025,-0.19366 -0.67421,-5.59306 -1.01605,-8.91747 -1.02466,-9.97504 -0.0181,-2.1901 -0.0439,-4.18385 -0.0852,-6.0009 -1.44055,-6.11158 -2.94224,-12.47125 -4.1503,-17.59933 -1.62999,-2.61045 -3.54843,-6.21867 -5.05959,-12.05715 -0.99452,-3.84025 -3.25566,-18.78986 -6.78256,-44.84793 -0.068,-0.34985 -0.19632,-1.42705 -0.38662,-3.2325 l -4.93731,-18.8327 c -0.2058,2.19902 -0.41503,4.42482 -0.62771,6.66936 0.43569,31.21203 0.42364,48.7462 -0.0344,52.60253 -1.44227,12.13478 -5.75618,15.47616 -5.88275,19.28964 -0.12314,3.73584 0.4245,9.17896 1.46552,17.36104 0.13346,1.04775 0.24196,4.39002 0.32462,10.02591 8.6e-4,0.0652 0.002,0.1303 0.002,0.19544 0,5.67427 -3.55704,10.4882 -8.4866,12.17585 -3.10068,2.92548 -8.09396,0.69969 -21.20445,0.7925 0,0 -2.01746,0.0179 -4.68158,-0.14815 h -3.24878 c -1.92446,0 -3.75422,-0.45783 -5.38937,-1.27889 -1.5499,-0.4507 -2.83202,-1.0415 -3.5467,-1.81973 -0.59672,-0.66756 -0.973,-1.42526 -0.973,-1.42526 -0.17738,-0.41321 -0.30567,-0.82017 -0.39695,-1.20482 -1.03671,-1.61625 -1.73159,-3.49756 -1.97268,-5.53951 -0.42365,-3.60108 -0.72071,-6.00001 -0.89034,-7.1968 -1.07546,-7.5761 3.59492,-14.2285 4.23814,-21.74838 1.11679,-13.04331 -4.0246,-12.05536 -2.33003,-27.61273 1.63429,-15.00673 4.72721,-32.32939 9.27791,-51.9671 2.63312,-30.92912 6.09716,-65.68065 9.91338,-77.3585 0.0637,-0.20883 2.44455,-8.48641 5.8862,-14.32935 0.10505,0.11691 0.21441,0.22936 0.3272,0.33735 0.43053,0.41946 0.85934,0.7229 1.28643,0.9478 0.85675,0.52922 1.5654,0.71039 1.5654,0.71039 0,0 0.0353,-8.9e-4 0.0715,0.0375 0,0 22.97995,5.95628 45.77995,-0.82821 l 0.0697,-0.0402 c 0,0 0.70263,-0.20705 1.54044,-0.76573 0.38489,-0.24007 0.83781,-0.59795 1.25456,-0.9942 0.52266,-0.52923 0.95319,-1.16734 1.30795,-1.8697 z"
     fill="#A339FF"
     id="path11"
     style="fill:#ff7f2a;stroke-width:0.876619" />
  <path
     opacity="0.176986"
     d="m 376.31196,158.31798 11.998,45.85195 11.63291,44.37494 c -0.20235,2.15975 -0.40814,4.3436 -0.61651,6.5462 0.43569,31.21203 0.42364,48.7462 -0.0344,52.60253 -1.44227,12.13478 -5.75618,15.47616 -5.88275,19.28964 -0.12314,3.73584 0.4245,9.17896 1.46552,17.36104 0.13346,1.04775 0.24196,4.39002 0.32462,10.02591 8.6e-4,0.0652 0.002,0.1303 0.002,0.19544 0,5.67427 -3.55704,10.4882 -8.4866,12.17585 -3.10068,2.92548 -8.09396,0.69969 -21.20445,0.7925 0,0 -2.01746,0.0179 -4.68158,-0.14815 h -3.24964 c -1.9236,0 -3.75336,-0.45783 -5.38851,-1.27889 -1.5499,-0.4507 -2.83202,-1.0415 -3.5467,-1.81973 -0.59672,-0.66756 -0.973,-1.42526 -0.973,-1.42526 -0.17738,-0.41321 -0.30567,-0.82017 -0.39695,-1.20482 -1.03671,-1.61625 -1.73159,-3.49756 -1.97268,-5.53951 -0.42365,-3.60108 -0.72071,-6.00001 -0.89034,-7.1968 -1.07546,-7.5761 3.59492,-14.2285 4.23814,-21.74838 1.11679,-13.04331 -4.0246,-12.05536 -2.33003,-27.61273 1.63429,-15.00673 4.72721,-32.32939 9.27791,-51.9671 2.63312,-30.92912 6.09716,-65.68065 9.91338,-77.3585 0.0637,-0.20883 2.44455,-8.48641 5.8862,-14.32935 0.10505,0.11691 0.21441,0.22936 0.3272,0.33735 0.43053,0.41946 0.85934,0.7229 1.28643,0.9478 0.85675,0.52922 1.5654,0.71039 1.5654,0.71039 0,0 0.0353,-8.9e-4 0.0715,0.0375 0,0 0.58638,0.15172 1.66529,0.38019 z"
     fill="#444444"
     id="path12"
     style="stroke-width:0.876619" />
  <path
     d="m 424.99798,104.67198 c 0.043,0.44658 0.0852,0.90781 0.12658,1.38358 l 0.002,0.11655 0.10246,1.90202 c 0.60361,21.1648 0.90584,30.67843 1.07374,34.40534 0,0 -0.0284,0.38912 0.0164,0.971 0.0999,1.70817 0.25316,8.73809 -2.87077,11.90275 -0.41675,0.39625 -0.87053,0.75413 -1.25456,0.9942 -0.83781,0.55868 -1.54044,0.76573 -1.54044,0.76573 l -0.0697,0.0402 c -22.80085,6.78449 -45.77995,0.82821 -45.77995,0.82821 -0.38833,-0.1062 -0.76376,-0.21509 -1.47671,-0.58367 -0.70004,-0.36145 -1.36564,-0.89514 -1.57919,-1.10308 -3.19367,-3.05043 -3.14458,-10.09016 -3.10325,-11.80101 -0.009,-0.54351 -0.0164,-0.971 -0.0164,-0.971 0.0405,-3.55467 0.0258,-12.18834 -0.0672,-30.91752 -8.95243,-0.86122 -12.57663,-3.53727 -10.87259,-8.0292 3.87046,-10.203694 6.43297,-19.994524 21.77705,-21.125804 3.76455,-1.94539 7.87525,-2.59679 10.73655,-2.79519 1.65754,-0.10763 2.89316,-0.0911 3.38827,-0.0612 0.21182,-0.004 0.49511,0.0299 1.02466,0.0592 0.53041,0.0292 1.13057,0.0572 1.8022,0.0839 0.6699,-0.051 1.2692,-0.10067 1.79789,-0.14904 0.52955,-0.0485 0.77581,-0.0917 1.02294,-0.0962 0.52869,-0.0485 1.72814,-0.10897 3.38826,-0.0613 0.39609,0.0131 0.81543,0.0336 1.25543,0.0642 0.22215,-0.0528 0.44689,-0.10478 0.67593,-0.15591 15.76944,-3.52754 20.75584,5.40331 27.15781,14.38423 2.56338,3.59466 0.32376,6.911134 -6.71712,9.949164 z"
     fill="#de3190"
     id="path13"
     style="stroke-width:0.876619" />
  <path
     opacity="0.176986"
     d="m 379.22665,83.448896 c -2.19054,1.14458 -4.26053,2.73075 -5.89223,4.92487 -0.72502,0.98447 -1.65324,2.47774 -2.35845,4.6275 -0.10074,0.31263 -0.20234,0.58643 -0.30309,0.89906 -0.23593,0.6648 -0.74137,2.07274 -1.17448,3.5959 -0.46584,1.71799 -0.83437,4.988414 -1.07547,9.538714 l 0.002,0.11656 -0.0387,1.90451 c 0.007,1.19965 0.0129,2.36137 0.0181,3.48765 -8.73114,-0.89157 -12.2546,-3.55833 -10.57036,-7.99931 3.83774,-10.118004 6.39078,-19.830124 21.39302,-21.095454 z"
     fill="#444444"
     id="path14"
     style="stroke-width:0.876619" />
  <path
     d="m 422.40964,199.70674 c -0.31257,0.25167 -0.4977,0.36323 -0.4977,0.36323 -4.92009,-0.85587 2.11476,-19.74391 4.21144,-25.09064 L 408.4622,109.4984 c 10.96386,-2.4025 18.1959,-5.02134 21.69697,-7.85642 9.52159,39.71032 14.66642,65.18025 15.43535,76.4083 0.0585,0.35609 0.0939,0.73807 0.10677,1.14503 0.20579,6.5346 -1.88916,16.53462 -6.28401,30.00007 -0.0353,0.0794 -11.46501,5.89649 -19.5073,0.97814 z M 374.31344,46.406153 c 0.0155,-0.02169 0.0319,-0.04364 0.0465,-0.06586 3.29011,-3.821339 9.34594,-3.708442 12.07291,-3.098892 0.33151,0.07515 1.50944,0.359662 3.21175,0.662385 0.92478,0.17876 1.6696,0.259974 2.11304,0.347345 5.53059,0.836861 7.80034,0.380992 10.43949,2.230974 0.49425,0.327354 1.61707,1.152702 2.52376,2.618658 2.55649,4.145659 1.3467,9.013854 1.01175,10.461693 -1.11766,4.33138 -3.85238,6.767887 -4.71086,7.807068 -0.63977,0.785812 -1.52666,1.663012 -2.3903,2.455517 l 0.83523,12.538175 c 0.009,0.27176 -0.0939,0.54762 -0.31429,0.6722 -0.95319,0.65641 -2.31539,1.40545 -4.02545,1.85606 -3.08432,0.85024 -5.76221,0.40294 -7.27595,-0.009 -0.3031,-0.0668 -0.53817,-0.36921 -0.5485,-0.67988 l -0.45205,-8.222057 c -0.32807,0.0888 -0.67852,0.180902 -1.05222,0.277198 -3.29355,0.891209 -3.09551,0.795629 -3.32713,0.848549 -2.41097,0.36234 -4.41551,0.0658 -4.7806,-0.0521 -1.33034,-0.26212 -2.62968,-1.575458 -3.69653,-3.683986 -1.4483,-2.813928 -2.56165,-7.075786 -2.88455,-12.07187 -0.0784,-0.711648 -0.0448,-1.411159 -0.0121,-2.11067 l 0.5528,-6.93201 c 0.11883,-1.549491 0.61136,-3.058374 1.49825,-4.367971 0.36078,-0.585722 0.70951,-1.055513 1.1254,-1.439896 0.0129,-0.01401 0.0267,-0.02793 0.0396,-0.04186 z m -16.59347,61.975957 c 1.19256,2.2308 4.80557,3.63679 10.84073,4.21689 0.0654,13.1031 0.0921,21.26466 0.0887,26.20354 -9.00065,11.48954 -15.02376,9.69658 -15.02376,9.69658 -4.19422,0.18831 -7.40167,-1.78849 -8.61232,-2.54797 -10.55917,-6.59975 -30.60463,-43.33291 -34.06178,-49.767554 -4.56362,-0.64792 -8.82414,-1.89085 -12.78157,-3.72879 -6.31157,-2.9312 -8.85514,-5.71219 -7.62985,-8.34299 l 32.3457,2.16458 0.0887,-0.0637 28.05159,30.599634 c 2.94052,-3.23695 4.93731,-5.88131 6.69388,-8.43019 z"
     fill="#f2a98a"
     id="path15"
     style="stroke-width:0.876619" />
  <path
     opacity="0.2"
     d="m 357.84138,108.38211 c 1.1917,2.2308 4.80557,3.63589 10.84073,4.21689 0.0654,13.1031 0.0921,21.26466 0.0887,26.20354 -9.00151,11.48954 -15.02376,9.69658 -15.02376,9.69658 -4.19508,0.18831 -7.40253,-1.78849 -8.61318,-2.54797 -10.55917,-6.59975 -30.60377,-43.33291 -34.06093,-49.767644 -4.56361,-0.64792 -8.82499,-1.89085 -12.78242,-3.7287 -6.31157,-2.9312 -8.85514,-5.71219 -7.62985,-8.34299 l 32.3457,2.16458 0.0887,-0.0637 28.05245,30.599634 c 2.93966,-3.23695 4.93731,-5.88131 6.69388,-8.43019 z"
     fill="#8c2a00"
     id="path16"
     style="stroke-width:0.876619" />
  <path
     d="m 386.24256,76.116975 5.52197,-1.826242 -4.51712,7.154233 z"
     fill="#482d1f"
     id="path17"
     style="stroke-width:0.876619" />
  <path
     d="m 399.70522,60.422517 c 0.0396,-0.941367 -0.14724,-1.907634 -0.63546,-2.796793 -1.01691,-1.868545 -3.15492,-3.078097 -5.00706,-2.654803 -1.04188,0.238108 -1.79531,0.976352 -1.87711,1.045428 -1.14004,1.204019 -1.50427,2.570555 -1.50427,2.570555 l -0.18341,0.907008 c -13.43338,-5.31148 -16.03809,-12.015021 -16.73813,-12.437779 0.2144,-0.250157 0.42364,-0.46167 0.55538,-0.642661 3.32714,-3.817234 9.49491,-3.6922 12.25891,-3.078544 0.36939,0.07925 1.54646,0.363678 3.28666,0.670506 0.96094,0.182776 1.70662,0.26399 2.15006,0.351362 5.64253,0.849087 7.9493,0.397323 10.62634,2.251321 0.49425,0.327266 1.65323,1.156719 2.55993,2.622675 2.82772,4.448649 1.53957,9.347366 1.04963,10.465798 -0.34356,0.782956 -0.88259,1.271042 -0.88259,1.271042 -1.9856,-0.308434 -3.83602,-0.445159 -5.65888,-0.545115 z m -29.56017,-3.168325 c -0.37025,-0.0979 -0.45722,-0.60839 -0.18168,-0.865686 0.35303,-0.292103 0.96697,-0.569926 1.71609,-0.52923 1.53441,0.08336 3.12823,1.220262 1.38286,1.59224 -1.0238,0.216689 -2.21378,-0.0036 -2.91727,-0.197324 z m 7.69701,0.690408 c -0.37111,-0.09799 -0.45722,-0.60839 -0.14466,-0.863723 0.35304,-0.292014 0.96784,-0.569837 1.75312,-0.527177 1.53527,0.08336 3.12737,1.259084 1.38372,1.592329 -1.10129,0.251406 -2.28955,-0.0077 -2.99218,-0.201429 z"
     fill="#482d1f"
     id="path18"
     style="stroke-width:0.876619" />
  <path
     d="m 372.92714,60.128362 c -0.0706,0.657476 -0.23766,1.737621 -0.63202,2.105226 -0.6656,0.547346 -1.39061,-1.43713 -0.84384,-2.613304 0.21268,-0.494155 0.47875,-0.55752 0.77668,-0.502455 0.44516,0.101919 0.72242,0.544937 0.69918,1.010533 z m 6.7042,0.286302 c 0.003,0.661581 -0.0508,1.747795 -0.44861,2.193044 -0.59499,0.629006 -1.54904,-1.290052 -1.11163,-2.511206 0.1748,-0.496209 0.44259,-0.598306 0.74224,-0.582063 0.44947,0.02436 0.80337,0.432665 0.818,0.900225 z"
     fill="#482d1f"
     id="path19"
     style="stroke-width:0.876619" />
  <path
     d="m 376.15955,68.200938 c 0.26607,-0.06337 0.91186,-0.222759 1.04619,-0.643375 0.003,-0.07756 0.0474,-0.191969 0.0138,-0.271576 -0.13605,-0.279697 -0.59327,-0.148952 -1.2692,-0.146721 -1.20118,0.0125 -2.16901,-0.156716 -2.16901,-0.156716 0,0 0.22301,0.790096 0.39867,1.033113 0.34442,0.602232 1.56196,0.27934 1.97957,0.185275 z"
     fill="#482d1f"
     id="path20"
     style="stroke-width:0.876619" />
  <path
     d="m 374.00863,60.264909 0.006,-0.05364 -0.004,0.0266 z m -0.76462,4.066944 c -0.093,0.433735 0.21268,0.881126 0.63546,0.977958 0.093,0.0141 0.093,0.0141 0.15327,0.02222 0.62943,0.08461 1.02293,0.124766 1.70059,0.161625 0.20665,0.01125 0.38317,-0.153325 0.39436,-0.367605 0.0103,-0.214279 -0.1481,-0.397055 -0.35475,-0.4083 -0.65699,-0.0357 -1.03241,-0.07398 -1.64377,-0.156181 l -0.12054,-0.01633 c -8.6e-4,-0.0017 -0.0327,-0.04819 -0.031,-0.05551 l 0.77323,-4.130487 0.006,-0.05364 0.11624,-2.288894 c 0.0103,-0.21428 -0.1481,-0.397056 -0.35476,-0.408301 -0.20665,-0.01125 -0.38317,0.153414 -0.39436,0.367605 l -0.11366,2.261852 z"
     fill="#482d1f"
     id="path21"
     style="stroke-width:0.876619" />
  <path
     d="m 399.68025,59.822873 c 0.056,1.15065 -0.26521,2.361719 -0.86192,3.298714 -0.72932,1.183402 -1.64635,1.772159 -2.795,2.17689 -0.19632,0.06908 -0.30051,0.289693 -0.23421,0.492817 0.0663,0.203213 0.27985,0.311915 0.47531,0.242838 0.50544,-0.178046 0.91014,-0.358858 1.38889,-0.666043 0.7052,-0.452656 1.31742,-1.050337 1.79444,-1.823476 0.68024,-1.069882 1.04533,-2.444361 0.98161,-3.76083 -0.0103,-0.21428 -0.18685,-0.379206 -0.3935,-0.368408 -0.20666,0.01071 -0.36595,0.193218 -0.35562,0.407498 z"
     fill="#482d1f"
     id="path22"
     style="stroke-width:0.876619" />
  <path
     d="m 428.31995,197.76563 c 0.0594,-0.31593 0.35475,-0.52209 0.65957,-0.46051 0.30481,0.0616 0.50372,0.3677 0.44431,0.68363 -0.37284,1.98394 -0.71038,3.5154 -1.49825,6.91925 -0.78356,3.38778 -1.11851,4.90853 -1.48705,6.87105 -0.0594,0.31593 -0.35475,0.52209 -0.65957,0.46051 -0.30481,-0.0616 -0.50372,-0.36769 -0.44431,-0.68362 0.37284,-1.98394 0.71038,-3.51541 1.49825,-6.91925 0.78356,-3.38778 1.11851,-4.90853 1.48705,-6.87106 z m 7.60229,-1.70995 c 0.0784,-0.31147 0.38575,-0.49799 0.68626,-0.41678 0.30051,0.0803 0.48048,0.39893 0.40212,0.7104 -0.53558,2.13387 -0.91445,3.79742 -1.72987,7.50916 -0.81887,3.72335 -1.19945,5.39404 -1.73848,7.54308 -0.0784,0.31147 -0.38489,0.49799 -0.6854,0.41767 -0.30051,-0.0812 -0.48047,-0.39982 -0.40298,-0.71129 0.53558,-2.13298 0.91445,-3.79653 1.73073,-7.50827 0.81801,-3.72335 1.1986,-5.39493 1.73762,-7.54397 z"
     fill="#482d1f"
     id="path23"
     style="stroke-width:0.876619" />
  <path
     d="m 309.30432,92.853026 c 13.24826,0 23.98739,-11.21841 23.98739,-25.057176 0,-13.838675 -10.73913,-25.057086 -23.98739,-25.057086 -13.24826,0 -23.98826,11.218411 -23.98826,25.057086 0,13.838766 10.74,25.057176 23.98826,25.057176 z"
     fill="#10b981"
     id="path24"
     style="stroke-width:0.876619" />
  <path
     d="m 309.3689,67.210752 c -2.6469,0 -4.7918,-2.196167 -4.7918,-4.905321 0,-2.709154 2.1449,-4.905321 4.7918,-4.905321 2.64689,0 4.79179,2.196167 4.79179,4.905321 0,2.709154 -2.1449,4.905321 -4.79179,4.905321 z m 0,2.452661 c 4.79696,0 8.6855,3.980643 8.6855,8.890963 h -17.37101 c 0,-4.91032 3.88855,-8.890963 8.68551,-8.890963 z"
     fill="#f2f6fb"
     id="path25"
     style="stroke-width:0.876619" />
  <path
     d="m 53.418312,308.59855 v 0.0723 c 0,0.93262 0.78718,1.70906 1.686729,1.70906 h 28.298973 l -9.97055,18.95855 c -7.121477,13.51899 -14.205498,26.99961 -21.28952,40.51861 l -11.73159,22.29901 c -0.412361,0.77644 -0.075,1.78671 0.712096,2.25257 l 0.149911,0.0785 c 0.787094,0.46586 1.799097,0.19366 2.173916,-0.5444 L 87.339054,310.3799 h 29.235206 l 43.89078,83.56289 c 0.37542,0.73806 1.38716,0.971 2.17417,0.5444 l 0.14983,-0.0785 c 0.787,-0.46586 1.12454,-1.47613 0.71209,-2.25257 L 151.7692,369.8571 c -7.12096,-13.519 -14.2049,-26.99962 -21.28883,-40.51861 l -9.97107,-18.95855 h 37.5198 c 0.93683,0 1.68682,-0.77644 1.68682,-1.70906 v -0.19456 c 0,-0.93173 -0.78701,-1.70906 -1.68682,-1.70906 h -25.48736 c -16.60467,0 -33.246186,0 -49.887876,0 H 56.727708 l -3.159399,-26.49448 c -2.173917,-18.02592 -4.310378,-36.09022 -6.484294,-54.15452 l -3.56074,-29.83586 c -0.112454,-1.04864 -0.974547,-1.82508 -1.911551,-1.70906 l -0.187453,0.0393 c -0.899549,0.11602 -1.536733,1.08791 -1.424278,2.05891 l 13.380863,111.72716 c 0.0097,0.0687 0.0223,0.13476 0.03746,0.19991 z"
     fill="#d8deed"
     id="path26"
     style="stroke-width:0.876619" />
  <path
     d="m 134.91482,391.64738 c -0.23076,-0.11959 -0.48822,-0.18831 -0.75859,-0.18831 h -20.26762 l -37.194916,-28.72117 14.09365,-20.46323 22.563966,16.97638 c 1.23648,4.35164 2.51085,8.70239 3.78522,13.0924 0.67507,2.29184 1.34928,4.54531 2.02435,6.79788 2.0984,0.85497 3.89802,1.63231 5.17238,2.21508 2.43594,1.08702 4.49732,2.09729 6.7464,3.61269 0,0 1.94944,1.24319 3.0361,3.0299 0.33753,0.58278 0.63718,1.2432 0.82489,1.94289 0.0749,0.31057 0.0749,0.62115 0.11194,0.89335 -0.0112,0.25435 -0.0672,0.53994 -0.13777,0.81214 z m 70.20303,-0.0652 c -0.12399,-0.0294 -0.25229,-0.0455 -0.38403,-0.0455 H 144.3882 c -0.1128,0 -0.22302,0.0116 -0.32979,0.0339 l -0.58638,-24.21782 28.33919,-0.0857 c 3.46318,2.34628 5.71571,4.04106 6.75845,5.08435 1.56282,1.56448 3.23672,3.01116 5.057,4.25971 4.39916,2.99064 6.68527,2.94869 13.3757,6.20796 1.81339,0.86122 3.55445,1.83936 5.26021,2.9353 1.7049,1.09594 2.28784,2.32932 2.76917,4.18564 0.0801,0.30879 0.0852,0.62026 0.12744,0.89068 0.005,0.307 -0.0103,0.55243 -0.0413,0.75145 z"
     fill="#474961"
     id="path27"
     style="stroke-width:0.876619" />
  <path
     d="m 112.52297,394.64248 c -0.037,-0.0241 -0.0732,-0.05 -0.10849,-0.0777 L 74.782744,365.50626 c -0.74964,-0.58278 -0.89955,-1.70995 -0.33736,-2.48639 0.56227,-0.77734 1.64919,-0.93263 2.39882,-0.34985 l 37.228676,28.74795 h 20.26762 c 0.93683,0 1.7247,0.81571 1.7247,1.7867 0,0.971 -0.78787,1.78671 -1.7247,1.78671 h -20.80234 c -0.38059,0 -0.73104,-0.12851 -1.01519,-0.34895 z m 32.05036,-3.14682 h 60.34476 c 0.93167,0 1.68681,0.78269 1.68681,1.74833 0,0.96475 -0.75514,1.74744 -1.68681,1.74744 h -60.34476 c -0.93167,0 -1.68682,-0.78269 -1.68682,-1.74744 0,-0.96564 0.75515,-1.74833 1.68682,-1.74833 z"
     fill="#ff5645"
     id="path28"
     style="stroke-width:0.876619" />
  <path
     d="m 184.4972,292.71096 c -2.79327,15.21557 -3.9359,37.51638 -1.19687,51.55389 0,0 2.84494,24.125 0.85159,24.28029 -0.48305,0.0393 -5.621,0.2722 -6.16519,0.31058 -13.52466,0.93262 -37.01263,2.79786 -40.51542,2.79786 -2.33433,0 -3.50193,-1.55467 -3.50193,-4.66221 l -0.76204,-8.3454 v -0.0669 c -2.58232,3.19412 -5.26452,6.50693 -8.04401,9.93666 -4.13567,1.27265 -10.39127,-0.54976 -18.76679,-5.46722 -8.375006,-4.91745 -14.857756,-9.7653 -19.447886,-14.54264 -2.21137,-1.47613 -7.59317,-9.64036 -6.16889,-11.77692 l 9.40785,-14.21868 5.6222,-8.50783 c 1.57419,-2.40875 2.76254,-4.00536 4.449176,-6.53103 0,-0.0384 0.30198,-0.50067 0.30198,-0.53904 -0.599646,0 0.0839,-0.50514 -4.188966,-0.5444 -4.27284,-0.0384 -27.286458,-0.54351 -36.094579,-13.71356 -3.513725,-5.25302 -3.785648,-11.07186 -4.048012,-13.67428 -0.974547,-10.12675 1.602948,-18.33293 7.732313,-24.61942 1.641782,-1.25034 2.849934,-1.99198 3.624543,-2.22491 1.236912,-0.38822 7.758665,-0.58277 9.033025,-0.66042 l 26.161996,-0.34984 c 12.44972,-0.17136 22.84356,-0.31683 31.18292,-0.43731 l 0.005,-0.0678 -0.005,0.0678 c 16.85093,-0.24364 25.30998,-0.38197 25.37628,-0.41678 0.14983,-0.0776 16.31966,0.62115 20.66801,3.22446 8.32731,5.05669 12.70666,20.99246 4.4887,39.19509 z"
     fill="#FFCB3D"
     id="path29"
     style="fill:#5f8dd3;stroke-width:0.876619" />
  <path
     opacity="0.2"
     d="m 184.4154,292.86358 c -2.78208,15.21288 -3.91523,37.45747 -1.18137,51.46821 0,0 2.84408,24.125 0.85159,24.28028 -0.48306,0.0393 -5.62186,0.27221 -6.16519,0.31147 -13.52466,0.93173 -37.0135,2.79698 -40.51542,2.79698 -2.33434,0 -3.50193,-1.55467 -3.50193,-4.66222 l -0.76032,-8.33112 c 32.28973,-39.93762 49.1906,-61.4843 50.70262,-64.63826 0.19632,-0.40964 0.38662,-0.81838 0.57002,-1.22534 z m -50.52782,-41.96529 0.0155,-0.1901 z m 14.15668,-0.20973 c -0.008,0 -0.0146,0 -0.0215,0 l -0.53386,-0.0973 h 0.0603 c 0.16532,0.0321 0.33064,0.0652 0.49511,0.0973 z"
     fill="#8c2a00"
     id="path30"
     style="stroke-width:0.876619" />
  <path
     d="m 117.56103,281.01884 c -1.84955,2.8996 -3.79727,5.71621 -8.52535,12.42126 -4.74529,6.72648 -6.69869,9.5529 -8.56633,12.48107 -0.22835,0.35788 -0.13347,0.8398 0.21191,1.07631 0.34537,0.2365 0.81042,0.13833 1.03878,-0.21955 1.84964,-2.8996 3.79649,-5.71621 8.52543,-12.42127 4.74444,-6.72737 6.69818,-9.5529 8.56582,-12.48106 0.22818,-0.35788 0.13347,-0.83981 -0.21182,-1.07631 -0.34528,-0.2365 -0.81026,-0.13833 -1.03844,0.21955 z"
     fill="#482d1f"
     id="path31"
     style="stroke-width:0.876619" />
  <path
     d="m 180.30126,181.44788 c 1.27265,1.03079 1.49825,2.93441 0.50372,4.25347 -0.0146,0.0205 -0.0301,0.0402 -0.0456,0.0598 l -15.48702,19.50652 c -0.79476,1.00134 -2.21464,1.16288 -3.20056,0.36412 -0.98591,-0.79786 -1.17793,-2.26595 -0.43311,-3.30746 l 14.51402,-20.29277 c 0.9618,-1.34494 2.79241,-1.62696 4.09003,-0.63008 0.0198,0.0152 0.0396,0.0303 0.0585,0.0464 z"
     fill="#474961"
     id="path32"
     style="stroke-width:0.876619" />
  <path
     d="m 177.0964,185.4827 c 3.26255,2.64168 7.93208,2.09728 10.43001,-1.21732 1.20118,-1.59304 -0.47014,-4.913 -0.0551,-9.8376 0.0964,-1.15038 0.86709,-3.00937 2.31195,-5.57787 v 0 c 0.10419,-0.18564 0.0431,-0.42303 -0.13519,-0.53102 -0.0878,-0.0526 -0.19201,-0.0669 -0.28931,-0.0393 -7.49467,2.15351 -12.04364,4.29274 -13.64607,6.41947 -2.49794,3.31371 -1.87883,8.14192 1.38372,10.78361 z"
     fill="#f2f6fb"
     id="path33"
     style="stroke-width:0.876619" />
  <path
     d="m 180.64224,180.82137 c 0.76893,0.62205 3.28753,-0.98884 3.65606,-0.14547 1.23304,2.82464 1.19515,6.64527 3.21778,3.96164 1.26231,-1.67515 -0.42623,-5.11023 0.0637,-10.24367 0.11452,-1.20214 0.93941,-3.15663 2.47468,-5.86168 v 0 c 0.10419,-0.18563 0.0448,-0.42303 -0.13346,-0.53191 -0.0887,-0.0544 -0.19546,-0.0678 -0.29448,-0.0384 -7.79431,2.34271 -12.53359,4.63276 -14.21954,6.86927 -1.51116,2.00446 -0.29879,3.04507 2.00282,3.37261 0.8051,0.11423 1.35015,-0.86748 2.48502,-1.09416 1.26145,-0.25167 0,3.10576 0.7474,3.71174 z"
     fill="#10b981"
     id="path34"
     style="stroke-width:0.876619" />
  <path
     d="m 107.55294,181.46752 c 9.31752,3.35208 15.21836,13.26375 13.47644,23.74481 l -7.82272,45.79037 -43.285973,0.80322 c -2.477956,-0.46051 -4.225218,-1.53503 -5.241957,-3.22446 -1.525022,-2.53281 -1.109475,-5.74299 -0.901701,-6.97905 l 7.812045,-45.27632 c 1.93076,-11.48954 12.38376,-19.2236 23.45758,-17.40566 l 0.75739,-3.693 c 0.0861,-0.41946 0.48418,-0.6872 0.88913,-0.59795 l 10.998396,2.42303 c 0.40556,0.0892 0.66388,0.50156 0.57777,0.92102 z"
     fill="#ff5645"
     id="path35"
     style="stroke-width:0.876619" />
  <path
     d="m 98.585874,162.17876 c -0.7877,8.28828 -1.21039,12.47392 -1.26826,12.55692 -0.0595,0.0857 3.336776,0.84516 10.188826,2.28024 l 0.60877,-3.20572 c 0.1593,0.0616 0.32376,0.12405 0.49339,0.18831 3.17042,1.26373 2.98099,1.15128 3.20658,1.22446 2.37222,0.61758 4.39571,0.54261 4.76941,0.4971 3.14459,-0.29005 6.71712,-6.29988 8.2214,-14.91391 0.13777,-0.70148 0.1636,-1.40117 0.22645,-2.10175 l 0.18341,-6.95852 c 0.0482,-1.55466 -0.27726,-3.10308 -1.01261,-4.4498 -0.30998,-0.57743 -0.61824,-1.11558 -0.96266,-1.53682 -3.95054,-5.29051 -11.05428,-4.191 -12.32606,-4.01251 -0.14983,0.003 -0.29965,0.0446 -0.44948,0.0473 -1.41816,0.37573 -2.69684,0.12673 -4.04612,0.11245 -0.60015,0.0107 -1.0789,0.52388 -1.1056,1.14682 l -0.0198,9.94647 c -0.0215,0.93262 -2.61848,-1.19411 -3.6316,-1.25391 -1.801506,-0.12315 -3.765156,2.78627 -4.407676,4.70238 -0.71485,2.07229 -0.0799,4.15887 1.10474,5.49667 0.0746,0.0821 0.15034,0.15975 0.22689,0.23382 z m 24.787306,68.7766 c 0.79562,-0.28024 1.58952,-0.56225 2.38169,-0.84516 6.05842,-2.16601 12.02125,-4.37485 18.49297,-6.82911 2.18021,-0.80322 3.11532,-1.20572 4.68072,-1.85007 5.09747,-2.11781 24.28274,-10.25795 25.20149,-11.01565 3.23242,-1.43597 1.11077,-13.36817 1.11077,-17.72695 -5.35493,2.44088 -12.71613,5.56717 -22.08359,9.37798 -1.89003,1.00938 -3.25309,2.3204 -4.22867,3.41366 -1.59296,0.12406 -14.33147,2.42125 -26.06771,4.45517 0.32118,-0.0562 0.64321,-0.11334 0.96611,-0.17046 -0.0758,-3.10487 -0.62857,-7.84295 -3.00768,-12.98798 0.59241,2.68452 0.69143,5.5395 0.2101,8.43554 l -0.88689,5.19323 c -6.86523,1.17983 -13.0373,2.19991 -15.93563,2.54083 -0.1636,-0.49085 -1.45415,-6.28917 -3.87063,-17.39406 l -22.340016,6.51407 c 0.51268,3.19055 1.74288,8.30435 3.69051,15.3414 2.92157,10.55603 4.04947,18.43913 11.69163,20.74793 1.78136,0.54083 4.09046,0.45694 9.216776,-0.82731 4.82521,-1.21018 9.30788,-2.53994 13.61921,-3.942 l -3.00166,17.56363 -0.0155,8.9e-4 0.009,0.0518 41.11472,-0.59348 c 2.16987,-0.0696 -0.35906,-1.60643 -7.5868,-4.61046 -7.22687,-3.00402 -14.59409,-5.55824 -22.10081,-7.66266 l -0.22559,-7.54487 c -0.34443,0.12227 -0.68971,0.24364 -1.035,0.36413 z M 73.118834,191.28458 c 5.49278,2.46409 10.81026,2.75146 15.9525,0.86034 5.14225,-1.89113 7.75496,-6.13656 7.83823,-12.7372 -4.48914,-1.41634 -9.20258,-1.0308 -14.14015,1.15663 -4.93766,2.18652 -8.15449,5.75994 -9.65058,10.72023 z"
     fill="#db9e75"
     id="path36"
     style="stroke-width:0.876619" />
  <path
     d="m 107.53314,176.7821 -3.15407,-4.66668 3.73959,1.69567 z"
     fill="#482d1f"
     id="path37"
     style="stroke-width:0.876619" />
  <path
     d="m 122.69553,159.24524 c 0.0439,-0.47032 0.39436,-0.84605 0.84298,-0.87907 0.29878,-0.0214 0.57088,0.11423 0.71984,0.64882 0.34529,1.22178 -0.69315,3.08791 -1.22615,2.42571 -0.40556,-0.4382 -0.36681,-1.53147 -0.33667,-2.19546 z m -6.67063,0.24989 c 0.0431,-0.47033 0.39351,-0.84605 0.84212,-0.87907 0.29965,-0.0214 0.57174,0.11423 0.71984,0.64882 0.34615,1.22178 -0.69315,3.08791 -1.22614,2.4257 -0.40556,-0.43819 -0.40384,-1.52878 -0.33582,-2.19545 z"
     fill="#482d1f"
     id="path38"
     style="stroke-width:0.876619" />
  <path
     d="m 118.42209,167.18814 c -0.26693,-0.0589 -0.91789,-0.24542 -1.0591,-0.6631 -0.005,-0.0776 -0.0499,-0.19098 -0.0181,-0.2713 0.13346,-0.24365 0.62771,-0.16243 1.30622,-0.13387 1.20376,0.0294 2.16815,-0.15708 2.16815,-0.15708 0,0 -0.24626,0.79697 -0.4202,1.00402 -0.33236,0.64704 -1.55765,0.3079 -1.97699,0.22133 z"
     fill="#482d1f"
     id="path39"
     style="stroke-width:0.876619" />
  <path
     d="m 125.29851,156.05827 c 0.36853,-0.10442 0.48736,-0.581 0.20752,-0.83267 -0.3582,-0.28559 -0.94459,-0.63276 -1.69543,-0.61758 -1.53785,0.0339 -3.1575,1.08612 -1.47585,1.50915 1.07288,0.31147 2.26114,0.10888 2.96376,-0.0589 z m -7.25356,0.52565 c 0.36853,-0.10441 0.48736,-0.58099 0.16963,-0.82998 -0.35734,-0.28559 -0.94459,-0.63276 -1.73245,-0.61491 -1.53786,0.0339 -3.15493,1.1245 -1.47586,1.50915 1.10991,0.30879 2.29903,0.1062 3.03868,-0.0643 z m -19.436946,11.32444 c 1.38647,-0.96207 2.328556,-2.4739 2.826166,-4.53459 -0.68386,-0.20081 -1.736756,-0.63454 -2.591276,-1.63142 -1.14719,-1.33959 -1.78144,-3.38689 -1.0653,-5.38154 0.64252,-1.91522 2.491476,-3.42527 4.292896,-3.303 1.01321,0.0598 1.81003,0.62829 1.92369,0.70415 1.25284,0.94869 1.79875,2.18207 1.79875,2.18207 l 0.81026,2.13209 c 1.28901,-0.93887 3.88252,-4.4989 7.78053,-10.68008 2.16471,-0.27041 3.83688,-0.45783 5.01567,-0.56136 1.76776,-0.15618 3.66467,0.0277 4.37935,-0.26952 -0.0517,0.13119 -0.10246,0.26328 -0.15413,0.39625 0.12744,-0.23025 0.19202,-0.35787 0.19202,-0.35787 0.0353,-0.11692 -0.57347,-0.68898 -0.57519,-0.76663 -3.72236,-5.10041 -10.57381,-4.62651 -11.84559,-4.44802 -0.14983,0.003 -0.29965,0.0437 -0.44948,0.008 -2.09495,0.27131 -3.85582,0.34181 -5.05441,0.4025 -5.69428,0.21954 -7.918476,-0.51763 -10.779176,1.01027 -0.52008,0.28201 -1.74571,0.96475 -2.80963,2.3436 -0.61532,0.77198 -1.07702,1.59215 -1.42049,2.42214 -3.26746,-0.11067 -5.58742,1.57251 -6.95986,5.05043 -1.83268,4.64258 0.97765,8.84786 4.47794,10.56763 1.47543,3.81081 5.52215,6.55512 8.7822,5.45829 0.58664,-0.19813 1.06169,-0.44534 1.42506,-0.74342 z"
     fill="#482d1f"
     id="path40"
     style="stroke-width:0.876619" />
  <path
     d="m 120.77278,159.70932 -0.005,-0.0562 0.004,0.0277 z m 0.72329,4.05802 0.005,0.0428 c 0.0284,0.42303 -0.22474,0.83623 -0.62685,0.93619 -0.074,0.0125 -0.11538,0.0187 -0.15757,0.025 -0.39351,0.0553 -0.6768,0.0794 -1.69543,0.1535 -0.20665,0.0152 -0.38576,-0.14636 -0.40039,-0.36055 -0.0146,-0.21419 0.14121,-0.39982 0.34786,-0.415 1.00056,-0.0723 1.27609,-0.0964 1.64721,-0.14814 0.0387,-0.005 0.0775,-0.0116 0.11624,-0.017 -0.009,8.9e-4 0.0198,-0.0464 0.0215,-0.10442 l -0.72415,-4.08658 -0.006,-0.0562 -0.0792,-2.29184 c -0.008,-0.21419 0.15412,-0.39447 0.36078,-0.40161 0.20751,-0.008 0.38145,0.15975 0.38834,0.37394 l 0.0784,2.26328 z"
     fill="#482d1f"
     id="path41"
     style="stroke-width:0.876619" />
  <path
     d="m 99.943154,195.2837 v -3.13164 c 0,-0.32218 0.251776,-0.58278 0.562276,-0.58278 0.31049,0 0.56218,0.2606 0.56218,0.58278 v 3.13164 c 0,0.32218 -0.25169,0.58278 -0.56218,0.58278 -0.3105,0 -0.562276,-0.2606 -0.562276,-0.58278 z"
     fill="#482d1f"
     id="path42"
     style="stroke-width:0.876619" />
  <path
     opacity="0.2"
     d="m 120.83134,196.77679 c 0.64321,1.36011 1.27781,3.12896 1.90294,5.30568 0.62426,2.17671 0.98419,4.73807 1.07804,7.68498 l -3.67414,0.62204 c 0.33409,-1.88398 0.56486,-3.23249 0.69316,-4.04731 0.24109,-1.53592 0.50285,-2.89336 0.50285,-3.95806 0,-1.90808 -0.1679,-3.77779 -0.50285,-5.60733 z m -4.61787,36.60874 8.19298,-2.79251 0.22732,7.54308 c 13.37914,4.15619 22.75177,7.61269 28.1179,10.3695 1.08149,0.55511 1.75225,0.95225 2.01401,1.19143 0.11022,0.10621 0.19633,0.19813 0.25918,0.27577 0.15413,0.1901 0,0.38555 -0.48736,0.42124 -0.32548,0.0241 -14.10501,0.2142 -41.34032,0.57029 z"
     fill="#8c2a00"
     id="path43"
     style="stroke-width:0.876619" />
</svg>
