<svg version="1.1" id="Layer_1" xmlns="http://www.w3.org/2000/svg" xmlns:xlink="http://www.w3.org/1999/xlink" x="0px" y="0px"
	 width="100%" viewBox="0 0 500 500" enable-background="new 0 0 500 500" xml:space="preserve">
<path fill="#000000" opacity="1.000000" stroke="none" 
	d="
M224.000000,501.000000 
	C149.333344,501.000000 75.166702,501.000000 1.000040,501.000000 
	C1.000026,334.333405 1.000026,167.666779 1.000013,1.000129 
	C167.666565,1.000086 334.333130,1.000086 500.999756,1.000043 
	C500.999847,167.666534 500.999847,334.333069 500.999939,500.999817 
	C408.833344,501.000000 316.666656,501.000000 224.000000,501.000000 
M230.733353,289.948273 
	C232.977158,284.300323 235.220963,278.652344 238.176651,273.028107 
	C238.800095,272.658752 239.629868,272.436584 240.014755,271.897095 
	C243.512527,266.993988 246.469193,261.620361 250.458221,257.167358 
	C265.334198,240.561142 280.093231,223.805832 295.805756,208.011337 
	C304.160126,199.613327 314.410828,193.109436 323.746063,185.675858 
	C327.575714,182.626373 332.285156,180.014450 334.711304,176.050827 
	C337.320587,171.787964 340.469025,168.771973 344.406067,166.120316 
	C346.284790,164.854965 347.950287,163.273117 349.712372,161.834641 
	C349.386566,161.298645 349.060730,160.762650 348.734894,160.226654 
	C337.359009,165.016907 325.983154,169.807159 314.607269,174.597412 
	C314.215088,174.036499 313.822906,173.475571 313.430695,172.914658 
	C314.649933,171.082047 315.454834,168.548996 317.161072,167.539658 
	C324.078461,163.447678 331.260864,159.801437 338.369293,156.035660 
	C343.036011,153.563400 347.743500,151.168030 352.432709,148.738235 
	C352.191132,148.270752 351.949554,147.803268 351.707977,147.335785 
	C348.111053,148.550812 344.417114,149.540482 340.941315,151.036789 
	C336.400208,152.991699 331.416473,152.064423 327.004791,153.270172 
	C320.852844,154.951553 315.141235,158.336609 309.345276,161.203049 
	C303.010742,164.335815 296.794922,167.708588 290.345337,171.071671 
	C290.146027,169.196136 289.992432,167.750671 289.756714,165.532440 
	C287.279266,166.211594 284.991058,166.451385 283.105499,167.450775 
	C280.571533,168.793854 278.431305,170.857498 275.975952,172.375504 
	C269.266663,176.523499 262.664581,180.903320 255.671646,184.517181 
	C249.144913,187.890137 241.734863,189.681091 235.506729,193.471558 
	C228.164734,197.939972 221.675446,203.809464 214.206879,209.287827 
	C208.642410,214.599579 203.077942,219.911316 197.113846,225.681778 
	C187.183731,237.507477 178.380859,249.979416 173.334045,264.604614 
	C173.795258,264.941772 174.256485,265.278900 174.717712,265.616058 
	C176.243652,264.445343 177.769608,263.274597 179.712814,262.635468 
	C179.863281,262.803070 180.013733,262.970703 180.026779,263.911957 
	C178.715805,269.456635 177.404816,275.001282 175.853638,281.561768 
	C178.800461,280.621002 180.229202,280.164886 182.431915,279.461670 
	C181.833267,282.743500 182.492737,284.836823 184.797592,284.163635 
	C184.221512,292.272491 183.476166,300.261505 183.146210,308.267639 
	C182.917358,313.820374 183.821869,314.355988 189.842926,313.412231 
	C190.874741,318.202454 191.912384,323.019745 192.945541,327.816223 
	C198.228577,326.920532 199.121902,323.500793 199.977310,320.098206 
	C202.239288,311.100861 205.957138,302.847778 212.535553,295.134094 
	C212.827866,296.854950 213.008514,297.918457 213.166519,299.134827 
	C213.166519,299.134827 213.169830,299.472778 212.626266,300.119019 
	C212.120773,301.675385 210.960037,303.374664 211.261185,304.755066 
	C211.729904,306.903564 213.191971,308.835358 214.233032,310.858978 
	C215.617767,309.614502 217.245972,308.549988 218.330032,307.083282 
	C219.944260,304.899292 220.667191,301.115723 222.668106,300.344513 
	C227.583267,298.450073 228.739120,294.526276 230.733353,289.948273 
z"/>
<path fill="#F56627" opacity="1.000000" stroke="none" 
	d="
M214.816437,209.071472 
	C221.675446,203.809464 228.164734,197.939972 235.506729,193.471558 
	C241.734863,189.681091 249.144913,187.890137 255.671646,184.517181 
	C262.664581,180.903320 269.266663,176.523499 275.975952,172.375504 
	C278.431305,170.857498 280.571533,168.793854 283.105499,167.450775 
	C284.991058,166.451385 287.279266,166.211594 289.756714,165.532440 
	C289.992432,167.750671 290.146027,169.196136 290.345337,171.071671 
	C296.794922,167.708588 303.010742,164.335815 309.345276,161.203049 
	C315.141235,158.336609 320.852844,154.951553 327.004791,153.270172 
	C331.416473,152.064423 336.400208,152.991699 340.941315,151.036789 
	C344.417114,149.540482 348.111053,148.550812 351.707977,147.335785 
	C351.949554,147.803268 352.191132,148.270752 352.432709,148.738235 
	C347.743500,151.168030 343.036011,153.563400 338.369293,156.035660 
	C331.260864,159.801437 324.078461,163.447678 317.161072,167.539658 
	C315.454834,168.548996 314.649933,171.082047 313.430695,172.914658 
	C313.822906,173.475571 314.215088,174.036499 314.607269,174.597412 
	C325.983154,169.807159 337.359009,165.016907 348.734894,160.226654 
	C349.060730,160.762650 349.386566,161.298645 349.712372,161.834641 
	C347.950287,163.273117 346.284790,164.854965 344.406067,166.120316 
	C340.469025,168.771973 337.320587,171.787964 334.711304,176.050827 
	C332.285156,180.014450 327.575714,182.626373 323.746063,185.675858 
	C314.410828,193.109436 304.160126,199.613327 295.805756,208.011337 
	C280.093231,223.805832 265.334198,240.561142 250.458221,257.167358 
	C246.469193,261.620361 243.512527,266.993988 240.014755,271.897095 
	C239.629868,272.436584 238.800095,272.658752 237.535675,272.842224 
	C235.822205,273.216980 234.749710,273.777588 233.499878,274.584900 
	C231.327957,278.455292 229.333359,282.079041 227.041153,285.466034 
	C226.622879,283.112030 226.224045,280.964783 226.448593,278.884827 
	C226.762711,275.975372 227.541595,273.116058 228.303223,269.333374 
	C225.418121,270.590576 223.939026,271.235077 222.605103,271.503723 
	C225.065033,266.066376 227.379791,261.004913 229.986359,255.830719 
	C233.052673,253.222000 233.250732,250.058273 232.745483,246.643890 
	C232.562943,245.410309 232.416428,244.016434 232.800018,242.880203 
	C234.712692,237.214737 233.780090,231.783447 232.362717,226.714294 
	C233.518478,221.116470 233.042557,214.963638 238.023773,210.979919 
	C238.037537,210.953110 237.993347,210.989685 237.661301,211.098907 
	C233.342667,214.169571 229.356094,217.130997 225.369507,220.092422 
	C224.993790,219.768188 224.618073,219.443954 224.242355,219.119720 
	C228.536423,214.066528 232.830490,209.013321 237.124557,203.960129 
	C232.878220,205.591934 229.200073,207.915955 225.533981,210.258820 
	C222.791351,212.011536 220.174500,212.893600 217.553848,209.915573 
	C217.016098,209.304459 215.747925,209.336105 214.816437,209.071472 
z"/>
<path fill="#0F6592" opacity="1.000000" stroke="none" 
	d="
M229.694534,255.943420 
	C227.379791,261.004913 225.065033,266.066376 222.313477,271.716064 
	C218.980835,281.196869 216.085007,290.089417 213.189178,298.981964 
	C213.008514,297.918457 212.827866,296.854950 212.535553,295.134094 
	C205.957138,302.847778 202.239288,311.100861 199.977310,320.098206 
	C199.121902,323.500793 198.228577,326.920532 192.945541,327.816223 
	C191.912384,323.019745 190.874741,318.202454 189.842926,313.412231 
	C183.821869,314.355988 182.917358,313.820374 183.146210,308.267639 
	C183.476166,300.261505 184.221512,292.272491 184.797592,284.163635 
	C182.492737,284.836823 181.833267,282.743500 182.431915,279.461670 
	C180.229202,280.164886 178.800461,280.621002 175.853638,281.561768 
	C177.404816,275.001282 178.715805,269.456635 180.331711,263.366028 
	C180.666428,262.381104 180.696213,261.942047 180.726013,261.503021 
	C180.249191,261.703308 179.772369,261.903595 179.295563,262.103882 
	C177.769608,263.274597 176.243652,264.445343 174.717712,265.616058 
	C174.256485,265.278900 173.795258,264.941772 173.334045,264.604614 
	C178.380859,249.979416 187.183731,237.507477 197.548004,225.598938 
	C198.334061,227.162827 198.685959,228.809555 199.061783,230.568268 
	C200.772675,230.924332 202.517944,231.287552 204.189957,231.635529 
	C204.375488,234.009857 203.735794,236.804337 204.845520,238.097275 
	C209.305496,243.293503 205.947540,247.698212 203.968033,252.171783 
	C202.219650,256.122986 199.730194,259.750488 198.043671,263.722870 
	C197.338959,265.382690 197.864349,267.564758 197.830444,269.509369 
	C199.414597,268.414703 201.424072,267.635925 202.511169,266.172119 
	C207.960129,258.835114 213.121826,251.285339 218.508118,243.900543 
	C219.338791,242.761627 220.811218,242.090775 222.635010,240.714279 
	C223.094559,247.191498 223.471909,252.510040 223.826965,257.514496 
	C225.326904,257.112885 227.510727,256.528168 229.694534,255.943420 
z"/>
<path fill="#964265" opacity="1.000000" stroke="none" 
	d="
M229.986359,255.830734 
	C227.510727,256.528168 225.326904,257.112885 223.826965,257.514496 
	C223.471909,252.510040 223.094559,247.191498 222.635010,240.714279 
	C220.811218,242.090775 219.338791,242.761627 218.508118,243.900543 
	C213.121826,251.285339 207.960129,258.835114 202.511169,266.172119 
	C201.424072,267.635925 199.414597,268.414703 197.830444,269.509369 
	C197.864349,267.564758 197.338959,265.382690 198.043671,263.722870 
	C199.730194,259.750488 202.219650,256.122986 203.968033,252.171783 
	C205.947540,247.698212 209.305496,243.293503 204.845520,238.097275 
	C203.735794,236.804337 204.375488,234.009857 204.189957,231.635529 
	C202.517944,231.287552 200.772675,230.924332 199.061783,230.568268 
	C198.685959,228.809555 198.334061,227.162827 197.747818,225.369598 
	C203.077942,219.911316 208.642410,214.599579 214.511658,209.179657 
	C215.747925,209.336105 217.016098,209.304459 217.553848,209.915573 
	C220.174500,212.893600 222.791351,212.011536 225.533981,210.258820 
	C229.200073,207.915955 232.878220,205.591934 237.124557,203.960129 
	C232.830490,209.013321 228.536423,214.066528 224.242355,219.119720 
	C224.618073,219.443954 224.993790,219.768188 225.369507,220.092422 
	C229.356094,217.130997 233.342667,214.169571 237.664825,211.103821 
	C238.000412,210.999512 238.010025,211.006729 238.010025,211.006729 
	C233.042557,214.963638 233.518478,221.116470 232.362717,226.714294 
	C233.780090,231.783447 234.712692,237.214737 232.800018,242.880203 
	C232.416428,244.016434 232.562943,245.410309 232.745483,246.643890 
	C233.250732,250.058273 233.052673,253.222000 229.986359,255.830734 
z"/>
<path fill="#964265" opacity="1.000000" stroke="none" 
	d="
M213.177856,299.058411 
	C216.085007,290.089417 218.980835,281.196869 222.168304,272.091949 
	C223.939026,271.235077 225.418121,270.590576 228.303223,269.333374 
	C227.541595,273.116058 226.762711,275.975372 226.448593,278.884827 
	C226.224045,280.964783 226.622879,283.112030 227.035049,285.791229 
	C224.857605,290.623291 222.455475,294.933899 219.898270,299.150482 
	C217.898605,302.447662 215.584702,302.968292 213.169830,299.472778 
	C213.169830,299.472778 213.166519,299.134827 213.177856,299.058411 
z"/>
<path fill="#0F6592" opacity="1.000000" stroke="none" 
	d="
M212.898041,299.795898 
	C215.584702,302.968292 217.898605,302.447662 219.898270,299.150482 
	C222.455475,294.933899 224.857605,290.623291 227.332657,286.028015 
	C229.333359,282.079041 231.327957,278.455292 233.465256,274.931152 
	C232.732574,277.680054 231.659988,280.284241 231.040573,282.992065 
	C230.486572,285.413910 230.432297,287.950043 230.157516,290.435760 
	C228.739120,294.526276 227.583267,298.450073 222.668106,300.344513 
	C220.667191,301.115723 219.944260,304.899292 218.330032,307.083282 
	C217.245972,308.549988 215.617767,309.614502 214.233032,310.858978 
	C213.191971,308.835358 211.729904,306.903564 211.261185,304.755066 
	C210.960037,303.374664 212.120773,301.675385 212.898041,299.795898 
z"/>
<path fill="#964265" opacity="1.000000" stroke="none" 
	d="
M230.445435,290.192017 
	C230.432297,287.950043 230.486572,285.413910 231.040573,282.992065 
	C231.659988,280.284241 232.732574,277.680054 233.642578,274.684509 
	C234.749710,273.777588 235.822205,273.216980 237.179733,272.830383 
	C235.220963,278.652344 232.977158,284.300323 230.445435,290.192017 
z"/>
<path fill="#964265" opacity="1.000000" stroke="none" 
	d="
M237.996887,210.994598 
	C237.993347,210.989685 238.037537,210.953110 238.023773,210.979919 
	C238.010025,211.006729 238.000412,210.999512 237.996887,210.994598 
z"/>
<path fill="#000000" opacity="1.000000" stroke="none" 
	d="
M179.504181,262.369690 
	C179.772369,261.903595 180.249191,261.703308 180.726013,261.503021 
	C180.696213,261.942047 180.666428,262.381104 180.400421,262.979248 
	C180.013733,262.970703 179.863281,262.803070 179.504181,262.369690 
z"/>
</svg>